<svg width="543" height="371" viewBox="0 0 543 371" fill="none" xmlns="http://www.w3.org/2000/svg">
<g clip-path="url(#clip0_3_499)">
<path d="M513.5 242.274C440.484 443.774 462.31 314.774 327 314.774C191.69 314.774 175.5 436.774 68 309.274C-39.4999 181.774 -8.2942 138.774 124.5 93.7736C257.294 48.7736 150.562 28.7169 209.5 15.7736C347.823 -14.6035 586.516 40.7736 513.5 242.274Z" fill="#FFCEF8"/>
<path d="M298.163 146.827C298.163 146.827 294.311 113.309 334.97 100.042C334.97 100.042 352.253 93.0965 382.539 88.7681C412.817 84.4402 484.614 83.4969 484.614 83.4969C484.614 83.4969 514.801 87.7103 524.319 96.2722C533.837 104.834 544.311 116.88 538.299 141.861C532.287 166.842 496.089 222.124 466.889 241.318C437.689 260.512 431.98 270.179 382.225 241.411C332.463 212.644 297.654 164.295 298.163 146.827Z" fill="#FD6534"/>
<path d="M372.518 233.309C319.649 202.433 291.667 160.034 301.065 130.439C302.931 124.563 306.989 116.925 316.565 109.292C322.319 105.913 330.979 99.2865 343.323 95.6114C361.955 90.0659 437.268 81.2247 498.988 83.611C527.18 84.7015 533.605 101.925 537.213 109.306C545.089 125.386 539.217 142.888 536.663 149.365C537.065 144.723 535.785 109.403 516.557 107.599C487.719 104.89 483.547 105.291 437.755 107.622C362.069 111.335 335.269 117.132 330.573 138.164C325.204 162.214 337.866 209.319 372.518 233.316L372.518 233.309Z" fill="#D04E1D"/>
<path d="M455.118 151.01L457.993 190.646C457.993 190.646 458.582 205.311 435.063 211.281C411.543 217.257 393.701 214.159 345.11 214.159C345.11 214.159 342.4 213.075 333.186 204.403C311.506 185.975 302.832 162.055 302.832 162.055C302.832 162.055 297.356 140.631 376.139 134.681C454.923 128.73 455.118 151.01 455.118 151.01Z" fill="black"/>
<path d="M388.074 92.944C388.074 92.944 373.096 67.883 349.034 52.5518C349.034 52.5518 331.198 61.6694 326.894 46.5078C324.186 22.8141 355.68 26.7934 352.184 46.9866C350.476 47.9395 400.375 81.9497 394.513 98.3503C390.278 98.8386 390.702 97.3796 388.068 92.9515L388.074 92.944Z" fill="black"/>
<path d="M451.214 84.5538C451.976 79.6843 452.512 75.7508 454.149 70.1769C458.632 54.9423 465.384 42.943 471.401 34.2577C471.401 34.2577 485.945 38.5396 488.909 25.5191C491.88 12.4982 481.526 4.70751 468.388 12.4184C460.09 18.1759 465.944 30.2084 465.944 30.2084C465.944 30.2084 450.767 56.3906 445.764 80.5877C445.409 81.359 441.844 89.2673 444.812 92.8282C445.201 93.2877 446.224 94.5233 447.658 94.5029C449.119 94.4805 450.219 93.2164 450.383 92.7934C451.611 89.5483 451.152 85.4223 451.207 84.5543L451.214 84.5538Z" fill="black"/>
<path d="M416.53 273.151C412.684 225.016 371.146 328.563 402.552 320.768C417.838 318.948 421.918 309.881 421.07 304.724C420.223 299.567 416.53 273.151 416.53 273.151Z" fill="#FF6631"/>
<path d="M400.373 272.755C400.373 272.755 387.937 323.284 421.032 307.458C421.032 307.458 420.162 319.964 399.204 321.672C389.036 322.5 386.1 298.342 400.373 272.755Z" fill="#CF4E23"/>
<path d="M457.972 266.736C453.056 258.627 449.469 256.401 447.053 257.89C437.186 263.998 447.095 332.485 466.84 315.564C479.684 307.08 479.265 297.143 476.195 292.915C473.125 288.688 457.972 266.736 457.972 266.736Z" fill="#FF6631"/>
<path d="M447.569 257.639C447.569 257.639 441.703 258.147 443.845 283.882C445.987 309.618 456.237 327.383 469.525 313.64C469.525 313.64 444.931 306.713 447.569 257.639Z" fill="#CD5116"/>
<path d="M358.392 207.163L354.324 207.458L354.619 211.526L358.687 211.231L358.392 207.163Z" fill="url(#paint0_radial_3_499)"/>
<path d="M363.853 204.599L359.785 204.894L360.08 208.962L364.148 208.667L363.853 204.599Z" fill="url(#paint1_radial_3_499)"/>
<path d="M368.802 208.576L364.734 208.871L365.029 212.939L369.097 212.644L368.802 208.576Z" fill="url(#paint2_radial_3_499)"/>
<path d="M374.028 206.029L369.959 206.324L370.254 210.392L374.323 210.097L374.028 206.029Z" fill="url(#paint3_radial_3_499)"/>
<path d="M343.349 199.851L339.281 200.146L339.576 204.214L343.644 203.919L343.349 199.851Z" fill="url(#paint4_radial_3_499)"/>
<path d="M348.305 199.492L344.237 199.787L344.532 203.855L348.6 203.56L348.305 199.492Z" fill="url(#paint5_radial_3_499)"/>
<path d="M337.519 195.055L333.45 195.351L333.745 199.419L337.814 199.124L337.519 195.055Z" fill="url(#paint6_radial_3_499)"/>
<path d="M342.973 194.66L338.905 194.955L339.2 199.023L343.268 198.728L342.973 194.66Z" fill="url(#paint7_radial_3_499)"/>
<path d="M347.928 194.301L343.86 194.596L344.155 198.664L348.223 198.369L347.928 194.301Z" fill="url(#paint8_radial_3_499)"/>
<path d="M353.147 193.922L349.079 194.217L349.374 198.285L353.442 197.99L353.147 193.922Z" fill="url(#paint9_radial_3_499)"/>
<path d="M337.124 189.615L333.056 189.91L333.351 193.978L337.419 193.683L337.124 189.615Z" fill="url(#paint10_radial_3_499)"/>
<path d="M342.578 189.219L338.51 189.514L338.805 193.583L342.873 193.288L342.578 189.219Z" fill="url(#paint11_radial_3_499)"/>
<path d="M347.534 188.86L343.466 189.155L343.761 193.223L347.829 192.928L347.534 188.86Z" fill="url(#paint12_radial_3_499)"/>
<path d="M352.752 188.482L348.684 188.777L348.979 192.845L353.048 192.55L352.752 188.482Z" fill="url(#paint13_radial_3_499)"/>
<path d="M336.752 184.486L332.684 184.781L332.979 188.85L337.047 188.555L336.752 184.486Z" fill="url(#paint14_radial_3_499)"/>
<path d="M342.206 184.091L338.138 184.386L338.433 188.454L342.501 188.159L342.206 184.091Z" fill="url(#paint15_radial_3_499)"/>
<path d="M347.162 183.731L343.094 184.026L343.389 188.095L347.457 187.8L347.162 183.731Z" fill="url(#paint16_radial_3_499)"/>
<path d="M352.381 183.353L348.312 183.648L348.607 187.716L352.676 187.421L352.381 183.353Z" fill="url(#paint17_radial_3_499)"/>
<path d="M336.38 179.351L332.311 179.646L332.606 183.714L336.675 183.419L336.38 179.351Z" fill="url(#paint18_radial_3_499)"/>
<path d="M341.834 178.955L337.766 179.25L338.061 183.319L342.129 183.023L341.834 178.955Z" fill="url(#paint19_radial_3_499)"/>
<path d="M346.789 178.596L342.721 178.891L343.016 182.959L347.084 182.664L346.789 178.596Z" fill="url(#paint20_radial_3_499)"/>
<path d="M352.008 178.217L347.94 178.512L348.235 182.581L352.303 182.286L352.008 178.217Z" fill="url(#paint21_radial_3_499)"/>
<path d="M336.04 174.666L331.972 174.961L332.267 179.029L336.335 178.734L336.04 174.666Z" fill="url(#paint22_radial_3_499)"/>
<path d="M341.494 174.27L337.426 174.565L337.721 178.633L341.789 178.338L341.494 174.27Z" fill="url(#paint23_radial_3_499)"/>
<path d="M346.45 173.911L342.381 174.206L342.676 178.274L346.745 177.979L346.45 173.911Z" fill="url(#paint24_radial_3_499)"/>
<path d="M351.668 173.532L347.6 173.827L347.895 177.896L351.963 177.6L351.668 173.532Z" fill="url(#paint25_radial_3_499)"/>
<path d="M335.648 169.267L331.58 169.562L331.875 173.63L335.943 173.335L335.648 169.267Z" fill="url(#paint26_radial_3_499)"/>
<path d="M341.103 168.871L337.034 169.166L337.329 173.234L341.398 172.939L341.103 168.871Z" fill="url(#paint27_radial_3_499)"/>
<path d="M346.058 168.512L341.99 168.807L342.285 172.875L346.353 172.58L346.058 168.512Z" fill="url(#paint28_radial_3_499)"/>
<path d="M351.277 168.133L347.208 168.428L347.504 172.497L351.572 172.202L351.277 168.133Z" fill="url(#paint29_radial_3_499)"/>
<path d="M335.289 164.311L331.221 164.606L331.516 168.675L335.584 168.38L335.289 164.311Z" fill="url(#paint30_radial_3_499)"/>
<path d="M340.743 163.916L336.675 164.211L336.97 168.279L341.038 167.984L340.743 163.916Z" fill="url(#paint31_radial_3_499)"/>
<path d="M345.699 163.556L341.63 163.851L341.925 167.92L345.994 167.625L345.699 163.556Z" fill="url(#paint32_radial_3_499)"/>
<path d="M350.917 163.178L346.849 163.473L347.144 167.541L351.212 167.246L350.917 163.178Z" fill="url(#paint33_radial_3_499)"/>
<path d="M334.929 159.356L330.861 159.651L331.156 163.719L335.225 163.424L334.929 159.356Z" fill="url(#paint34_radial_3_499)"/>
<path d="M340.384 158.96L336.316 159.255L336.611 163.324L340.679 163.029L340.384 158.96Z" fill="url(#paint35_radial_3_499)"/>
<path d="M345.339 158.601L341.271 158.896L341.566 162.964L345.634 162.669L345.339 158.601Z" fill="url(#paint36_radial_3_499)"/>
<path d="M350.558 158.223L346.49 158.518L346.785 162.586L350.853 162.291L350.558 158.223Z" fill="url(#paint37_radial_3_499)"/>
<path d="M339.999 153.652L335.931 153.947L336.226 158.015L340.294 157.72L339.999 153.652Z" fill="url(#paint38_radial_3_499)"/>
<path d="M344.954 153.292L340.886 153.587L341.181 157.655L345.249 157.36L344.954 153.292Z" fill="url(#paint39_radial_3_499)"/>
<path d="M386.709 196.599L382.641 196.894L382.936 200.962L387.004 200.667L386.709 196.599Z" fill="url(#paint40_radial_3_499)"/>
<path d="M391.664 196.24L387.596 196.535L387.891 200.603L391.959 200.308L391.664 196.24Z" fill="url(#paint41_radial_3_499)"/>
<path d="M380.878 191.804L376.81 192.099L377.105 196.167L381.173 195.872L380.878 191.804Z" fill="url(#paint42_radial_3_499)"/>
<path d="M386.332 191.408L382.264 191.703L382.559 195.771L386.627 195.476L386.332 191.408Z" fill="url(#paint43_radial_3_499)"/>
<path d="M391.288 191.049L387.22 191.344L387.515 195.412L391.583 195.117L391.288 191.049Z" fill="url(#paint44_radial_3_499)"/>
<path d="M396.506 190.67L392.438 190.965L392.733 195.033L396.802 194.738L396.506 190.67Z" fill="url(#paint45_radial_3_499)"/>
<path d="M380.483 186.363L376.415 186.658L376.71 190.726L380.778 190.431L380.483 186.363Z" fill="url(#paint46_radial_3_499)"/>
<path d="M385.938 185.967L381.87 186.262L382.165 190.331L386.233 190.036L385.938 185.967Z" fill="url(#paint47_radial_3_499)"/>
<path d="M390.893 185.608L386.825 185.903L387.12 189.971L391.188 189.676L390.893 185.608Z" fill="url(#paint48_radial_3_499)"/>
<path d="M396.112 185.23L392.044 185.525L392.339 189.593L396.407 189.298L396.112 185.23Z" fill="url(#paint49_radial_3_499)"/>
<path d="M380.111 181.234L376.043 181.529L376.338 185.598L380.407 185.303L380.111 181.234Z" fill="url(#paint50_radial_3_499)"/>
<path d="M385.566 180.839L381.498 181.134L381.793 185.202L385.861 184.907L385.566 180.839Z" fill="url(#paint51_radial_3_499)"/>
<path d="M390.521 180.479L386.453 180.774L386.748 184.843L390.816 184.548L390.521 180.479Z" fill="url(#paint52_radial_3_499)"/>
<path d="M395.74 180.101L391.672 180.396L391.967 184.464L396.035 184.169L395.74 180.101Z" fill="url(#paint53_radial_3_499)"/>
<path d="M379.739 176.099L375.671 176.394L375.966 180.462L380.034 180.167L379.739 176.099Z" fill="url(#paint54_radial_3_499)"/>
<path d="M385.193 175.703L381.125 175.998L381.42 180.067L385.488 179.771L385.193 175.703Z" fill="url(#paint55_radial_3_499)"/>
<path d="M390.149 175.344L386.081 175.639L386.376 179.707L390.444 179.412L390.149 175.344Z" fill="url(#paint56_radial_3_499)"/>
<path d="M395.368 174.965L391.299 175.26L391.594 179.329L395.663 179.034L395.368 174.965Z" fill="url(#paint57_radial_3_499)"/>
<path d="M379.399 171.414L375.331 171.709L375.626 175.777L379.694 175.482L379.399 171.414Z" fill="url(#paint58_radial_3_499)"/>
<path d="M384.854 171.018L380.785 171.313L381.08 175.381L385.149 175.086L384.854 171.018Z" fill="url(#paint59_radial_3_499)"/>
<path d="M389.809 170.659L385.741 170.954L386.036 175.022L390.104 174.727L389.809 170.659Z" fill="url(#paint60_radial_3_499)"/>
<path d="M395.028 170.28L390.959 170.575L391.254 174.644L395.323 174.348L395.028 170.28Z" fill="url(#paint61_radial_3_499)"/>
<path d="M379.008 166.015L374.939 166.31L375.234 170.378L379.303 170.083L379.008 166.015Z" fill="url(#paint62_radial_3_499)"/>
<path d="M384.462 165.619L380.394 165.914L380.689 169.983L384.757 169.687L384.462 165.619Z" fill="url(#paint63_radial_3_499)"/>
<path d="M389.417 165.26L385.349 165.555L385.644 169.623L389.712 169.328L389.417 165.26Z" fill="url(#paint64_radial_3_499)"/>
<path d="M394.636 164.881L390.568 165.176L390.863 169.245L394.931 168.95L394.636 164.881Z" fill="url(#paint65_radial_3_499)"/>
<path d="M378.648 161.059L374.58 161.354L374.875 165.423L378.943 165.128L378.648 161.059Z" fill="url(#paint66_radial_3_499)"/>
<path d="M384.103 160.664L380.034 160.959L380.329 165.027L384.398 164.732L384.103 160.664Z" fill="url(#paint67_radial_3_499)"/>
<path d="M389.058 160.304L384.99 160.599L385.285 164.668L389.353 164.373L389.058 160.304Z" fill="url(#paint68_radial_3_499)"/>
<path d="M394.277 159.926L390.208 160.221L390.504 164.289L394.572 163.994L394.277 159.926Z" fill="url(#paint69_radial_3_499)"/>
<path d="M378.289 156.104L374.221 156.399L374.516 160.467L378.584 160.172L378.289 156.104Z" fill="url(#paint70_radial_3_499)"/>
<path d="M383.743 155.708L379.675 156.003L379.97 160.072L384.038 159.777L383.743 155.708Z" fill="url(#paint71_radial_3_499)"/>
<path d="M388.699 155.349L384.63 155.644L384.925 159.712L388.994 159.417L388.699 155.349Z" fill="url(#paint72_radial_3_499)"/>
<path d="M393.917 154.971L389.849 155.266L390.144 159.334L394.212 159.039L393.917 154.971Z" fill="url(#paint73_radial_3_499)"/>
<path d="M383.358 150.4L379.29 150.695L379.585 154.763L383.653 154.468L383.358 150.4Z" fill="url(#paint74_radial_3_499)"/>
<path d="M388.314 150.04L384.245 150.335L384.54 154.404L388.609 154.108L388.314 150.04Z" fill="url(#paint75_radial_3_499)"/>
<path d="M268.955 239.412C268.955 239.412 262.408 245.632 260.516 249.048C258.624 252.464 251.771 250.414 255.191 244.949C258.611 239.484 261.776 238.403 262.761 236.35C263.746 234.296 268.956 239.405 268.956 239.405L268.955 239.412Z" fill="#090206"/>
<path d="M254.133 204.972C254.133 204.972 252.891 201.92 249.151 201.914C245.41 201.907 242.654 198.503 242.11 194.471C241.806 192.227 242.807 190.536 244.29 189.975C245.414 189.548 246.588 190.079 248.322 191.048C253.665 194.041 255.558 196.178 258.969 197.951C260.292 198.632 262.345 199.527 265.169 200.066C261.491 201.701 257.812 203.336 254.133 204.972Z" fill="#090206"/>
<path d="M277.168 197.843C277.168 197.843 319.809 190.603 294.321 221.277C268.833 251.951 262.634 236.278 256.667 226.997C250.708 217.717 240.678 201.153 277.168 197.843Z" fill="#FF6632"/>
<path d="M290.187 197.108C290.187 197.108 245.978 213.479 270.718 239.324C270.718 239.324 263.203 242.067 253.46 222.898C243.717 203.728 263.973 200.042 263.973 200.042C263.973 200.042 280.309 196.036 290.187 197.101L290.187 197.108Z" fill="#CF4D1B"/>
<path d="M366 268.025L306.576 291.441V229.047L366 208.97V268.025Z" fill="#B72DA8"/>
<path d="M306.577 291.441L247.148 268.025V208.97L306.577 229.047V291.441Z" fill="#CC00AA"/>
<path d="M365.903 208.97L306.474 229.048L247.05 208.97L306.474 189.484L365.903 208.97Z" fill="#FFA0F2"/>
<path d="M269.242 216.468L328.662 196.764L339.313 200.252L279.812 220.023V235.636C279.812 235.636 277.947 233.469 277.284 233.665C275.564 234.179 273.159 235.19 272.242 234.323C271.337 233.492 270.31 232.805 269.196 232.288L269.242 216.468Z" fill="white"/>
<path d="M243.63 218.698L254.358 223.403C254.358 223.403 255.995 224.085 256.659 221.905C257.323 219.732 256.295 218.209 255.449 217.527C255.449 217.527 245.18 207.238 242.647 211.386C241.162 213.819 241.283 217.527 243.63 218.698Z" fill="#090206"/>
<path d="M243.569 226.673L254.297 231.378C254.297 231.378 255.933 232.061 256.597 229.881C257.261 227.707 256.233 226.185 255.387 225.502C255.387 225.502 245.118 215.213 242.586 219.361C241.1 221.795 241.221 225.502 243.569 226.673Z" fill="#090206"/>
<path d="M243.309 234.88L252.45 239.701C252.45 239.701 253.844 240.401 254.382 238.23C254.921 236.066 254.033 234.533 253.309 233.842C253.309 233.842 244.495 223.447 242.395 227.563C241.164 229.978 241.307 233.685 243.309 234.88Z" fill="#090206"/>
<path d="M243.009 241.573L250.798 245.68C250.798 245.68 251.986 246.276 252.444 244.427C252.903 242.583 252.147 241.277 251.529 240.688C251.529 240.688 244.02 231.831 242.231 235.338C241.181 237.396 241.303 240.554 243.009 241.573Z" fill="#090206"/>
<path d="M358.788 267.413C358.788 267.413 352.241 273.633 350.349 277.049C348.457 280.465 341.604 278.415 345.024 272.95C348.444 267.485 351.609 266.405 352.594 264.351C353.579 262.297 358.789 267.406 358.789 267.406L358.788 267.413Z" fill="#090206"/>
<path d="M349.212 260.455C341.925 267.646 338.568 272.147 336.952 275.116C336.566 275.827 335.514 277.848 333.837 278.019C332.145 278.188 330.399 276.425 329.916 275.303C328.079 271.052 338.426 262.383 346.415 256.455L349.211 260.462L349.212 260.455Z" fill="#090206"/>
<path d="M344.112 252.477C334.876 258.21 330.292 262.051 327.863 264.703C327.281 265.337 325.679 267.157 323.964 266.977C313.348 261.094 332.109 252.756 342.436 247.834L344.119 252.478L344.112 252.477Z" fill="#090206"/>
<path d="M340.748 243.141L323.983 247.408C323.983 247.408 321.423 248.024 320.281 245.809C319.138 243.601 320.466 241.524 322.01 241.469L341.692 235.894L340.755 243.142L340.748 243.141Z" fill="#090206"/>
<path d="M343.966 232.973C343.966 232.973 342.724 229.922 338.984 229.915C335.243 229.909 332.487 226.504 331.943 222.472C331.639 220.228 332.64 218.538 334.123 217.976C335.247 217.549 336.421 218.08 338.155 219.049C343.498 222.042 345.391 224.179 348.802 225.952C350.125 226.633 352.178 227.528 355.003 228.067C351.324 229.702 347.645 231.338 343.966 232.973Z" fill="#090206"/>
<path d="M367.001 225.844C367.001 225.844 409.642 218.604 384.154 249.278C358.666 279.952 352.467 264.279 346.5 254.998C340.541 245.718 330.511 229.154 367.001 225.844Z" fill="#FF6632"/>
<path d="M380.02 225.109C380.02 225.109 335.811 241.48 360.551 267.325C360.551 267.325 353.036 270.068 343.293 250.899C333.55 231.73 353.806 228.043 353.806 228.043C353.806 228.043 370.142 224.037 380.02 225.102L380.02 225.109Z" fill="#CF4D1B"/>
<path d="M4 334.213L73.94 361.773V288.338L4 264.708V334.213Z" fill="#B72DA8"/>
<path d="M73.939 361.773L143.884 334.213V264.708L73.939 288.338V361.773Z" fill="#CC00AA"/>
<path d="M4.11475 264.709L74.0597 288.339L144 264.709L74.0597 241.774L4.11475 264.709Z" fill="#FFA0F2"/>
<path d="M117.88 273.533L47.9453 250.343L35.4103 254.448L105.44 277.718V296.093C105.44 296.093 107.635 293.543 108.415 293.773C110.44 294.378 113.27 295.568 114.35 294.548C115.414 293.569 116.624 292.761 117.935 292.153L117.88 273.533Z" fill="white"/>
<path d="M25.375 259.698L76.9558 280.023V225.865L25.375 208.438V259.698Z" fill="#B72DA8"/>
<path d="M76.955 280.023L128.539 259.698V208.438L76.955 225.865V280.023Z" fill="#CC00AA"/>
<path d="M25.4596 208.438L77.044 225.865L128.625 208.438L77.044 191.524L25.4596 208.438Z" fill="#FFA0F2"/>
<path d="M109.362 214.946L57.7846 197.843L48.54 200.871L100.187 218.033V231.584C100.187 231.584 101.806 229.703 102.381 229.873C103.875 230.319 105.962 231.197 106.758 230.445C107.543 229.723 108.435 229.127 109.402 228.678L109.362 214.946Z" fill="white"/>
<path d="M117 344.725L172.952 366.773V308.025L117 289.121V344.725Z" fill="#B72DA8"/>
<path d="M172.951 366.773L228.907 344.725V289.121L172.951 308.025V366.773Z" fill="#CC00AA"/>
<path d="M117.092 289.122L173.048 308.026L229 289.122L173.048 270.774L117.092 289.122Z" fill="#FFA0F2"/>
<path d="M208.104 296.181L152.156 277.629L142.128 280.913L198.152 299.529V314.229C198.152 314.229 199.908 312.189 200.532 312.373C202.152 312.857 204.416 313.809 205.28 312.993C206.132 312.21 207.099 311.564 208.148 311.077L208.104 296.181Z" fill="white"/>
<path d="M133.75 285.182L166.972 298.273V263.392L133.75 252.168V285.182Z" fill="#B72DA8"/>
<path d="M166.971 298.273L200.195 285.182V252.168L166.971 263.392V298.273Z" fill="#CC00AA"/>
<path d="M133.805 252.168L167.028 263.392L200.25 252.168L167.028 241.274L133.805 252.168Z" fill="#FFA0F2"/>
<path d="M187.843 256.359L154.624 245.344L148.67 247.294L181.934 258.347V267.075C181.934 267.075 182.977 265.864 183.347 265.973C184.309 266.261 185.653 266.826 186.166 266.341C186.672 265.876 187.246 265.493 187.869 265.204L187.843 256.359Z" fill="white"/>
<path opacity="0.5" d="M208.494 98.1296L210.541 97.9614C210.042 99.9391 209.295 103.11 208.298 107.473C207.301 111.836 206.506 115.179 205.914 117.502C205.26 120.327 204.162 125.609 202.622 133.346C202.279 134.884 200.061 145.533 195.968 165.293C194.832 170.99 193.945 175.29 193.306 178.194C192.544 182.102 192.092 184.111 191.951 184.221C191.653 184.362 190.814 184.45 189.434 184.484C189.183 184.453 189.181 183.229 189.428 180.813C189.412 180.734 189.051 180.766 188.345 180.908C187.718 181.035 187.404 181.098 187.404 181.098C187.247 181.13 187.067 181.452 186.864 182.064C186.661 182.676 186.459 183.289 186.256 183.901C186.147 184.576 186.093 184.913 186.093 184.913C185.889 185.117 183.034 185.326 177.527 185.539C177.496 185.382 177.385 184.833 177.195 183.892C177.068 182.857 176.925 181.743 176.766 180.551C176.591 179.281 176.496 178.402 176.479 177.916C176.129 174.967 175.651 170.575 175.045 164.739C174.423 158.825 173.938 154.394 173.588 151.445C173.385 152.465 172.693 155.91 171.51 161.78C170.312 167.571 169.417 172.036 168.826 175.175C168.343 177.231 167.681 180.017 166.839 183.533C166.061 186.954 165.593 188.885 165.437 189.325C165.108 189.309 164.221 189.162 162.777 188.882C161.349 188.68 160.046 188.494 158.869 188.324C157.692 188.153 157.033 188.123 156.892 188.233C156.767 188.421 156.658 188.688 156.564 189.033C156.487 189.457 156.354 189.81 156.166 190.093C156.072 190.438 155.916 190.674 155.696 190.8C154.724 190.833 153.21 190.812 151.154 190.737C150.917 189.561 150.456 185.859 149.771 179.631C149.196 173.545 148.717 168.744 148.335 165.231C147.554 158.125 146.399 147.544 144.87 133.489C144.662 131.246 144.327 127.967 143.865 123.654C143.403 119.34 143.052 116.187 142.814 114.195C142.813 113.787 142.805 113.544 142.789 113.465C142.805 113.544 142.93 113.559 143.166 113.512C143.401 113.464 143.644 113.456 143.895 113.487C144.13 113.439 144.287 113.408 144.366 113.392C144.507 113.282 144.561 113.148 144.53 112.992C144.498 112.835 144.427 112.686 144.317 112.545C144.286 112.388 144.301 112.262 144.364 112.168C144.41 111.996 144.551 111.885 144.787 111.838C145.163 111.68 145.461 111.539 145.68 111.413C145.868 111.13 145.852 110.644 145.631 109.954C145.488 109.248 145.558 108.785 145.84 108.565C145.981 108.455 146.17 108.376 146.405 108.329C147.173 108.092 147.957 107.934 148.757 107.854C149.149 107.775 149.401 107.806 149.511 107.947C149.605 108.01 149.676 108.159 149.723 108.394C150.022 109.068 150.313 109.499 150.596 109.687C150.941 109.78 151.53 109.866 152.362 109.943C152.518 109.911 152.769 109.942 153.115 110.036C153.539 110.113 153.79 110.144 153.868 110.128C154.025 110.097 154.331 109.994 154.785 109.821C155.083 109.679 155.263 109.357 155.325 108.855C155.45 108.259 155.622 107.898 155.841 107.772C155.904 107.678 156.013 107.615 156.17 107.583C156.311 107.473 156.46 107.402 156.617 107.37C156.774 107.339 156.931 107.307 157.087 107.276C157.307 107.15 157.456 107.079 157.534 107.063C158.794 119.377 160.031 131.981 161.245 144.876C165.277 126.026 167.87 114.2 169.023 109.397C168.991 109.24 169.014 108.95 169.092 108.526C169.17 108.103 169.24 107.844 169.302 107.749C169.365 107.655 169.498 107.506 169.702 107.302C169.89 107.019 170.211 106.995 170.666 107.229C171.169 107.291 172.346 107.462 174.197 107.741C174.37 107.788 174.504 107.843 174.598 107.905C174.692 107.968 174.739 108.203 174.74 108.611C174.803 108.925 174.89 109.152 175 109.293C175.094 109.356 175.228 109.411 175.401 109.457C176.075 109.566 176.577 109.628 176.907 109.643C177.456 109.532 177.848 109.249 178.082 108.794C178.082 108.794 178.105 108.504 178.151 107.923C178.26 107.248 178.557 106.699 179.043 106.274C179.513 105.771 180.069 105.496 180.713 105.448C180.885 105.494 181.136 105.525 181.466 105.541C181.795 105.556 182.038 105.547 182.195 105.516C182.368 105.563 182.501 105.617 182.596 105.68C182.878 105.868 183.099 106.558 183.258 107.75C183.274 107.828 183.369 108.503 183.544 109.773C183.688 111.703 183.832 113.224 183.975 114.338C184.294 117.538 184.773 122.338 185.411 128.739C186.049 135.139 186.528 139.939 186.847 143.139C191.315 121.998 194.117 108.987 195.254 104.106C195.348 103.76 195.457 103.289 195.581 102.693C195.784 102.081 195.893 101.61 195.909 101.28C196.723 100.463 197.099 99.8978 197.035 99.5842L197.34 98.6658C197.732 98.5867 198.093 98.5548 198.422 98.5699C198.595 98.6167 198.752 98.585 198.893 98.475C199.018 98.2865 199.143 98.098 199.268 97.9095L199.362 97.7682L199.361 97.1563L200.444 97.0604L201.056 97.6712C201.386 97.6864 201.473 97.9137 201.316 98.3533C201.16 98.7928 201.098 99.0911 201.13 99.2479C201.177 99.4832 201.178 99.6871 201.131 99.8598C201.084 100.032 201.037 100.205 200.99 100.378C200.928 100.472 200.912 100.598 200.944 100.754C200.976 100.911 200.937 101.123 200.827 101.39C200.702 101.578 200.655 101.751 200.687 101.908L201.44 102.001L201.815 100.824L204.306 98.6072L205.059 98.7001C205.342 98.8879 205.483 98.9818 205.483 98.9818C205.593 99.1228 205.664 99.2717 205.696 99.4286C205.727 99.5854 205.751 99.7031 205.767 99.7815L205.697 100.04C205.603 100.386 205.447 100.825 205.228 101.359C205.088 101.877 204.877 102.654 204.597 103.69C204.394 104.71 204.341 105.456 204.436 105.926C204.53 106.397 204.602 106.749 204.649 106.985L206.105 105.1L207.79 99.4957L208.494 98.1296ZM169.806 155.758C169.601 155.146 169.458 154.441 169.379 153.641C169.362 153.154 169.19 153.515 168.863 154.724C168.723 155.65 168.552 156.623 168.35 157.643C168.209 158.161 167.664 160.719 166.715 165.318C165.75 169.838 165.197 172.357 165.057 172.875C164.995 173.377 164.59 175.213 163.842 178.384C163.173 181.539 162.776 183.414 162.651 184.011C162.481 185.188 162.748 185.705 163.454 185.562C163.768 185.499 163.979 185.334 164.089 185.067C164.245 184.628 164.587 183.09 165.116 180.453C164.944 180.406 164.888 180.132 164.95 179.629C164.996 179.049 165.097 178.335 165.253 177.487C165.487 176.624 165.619 176.067 165.65 175.816C165.929 173.964 166.607 170.848 167.682 166.469C168.726 162.341 169.434 158.771 169.806 155.758ZM178.917 115.358C178.93 113.805 178.607 112.809 177.947 112.371C177.884 112.466 177.743 112.576 177.524 112.701C177.367 112.733 177.265 112.835 177.219 113.008C177.234 113.086 177.25 113.369 177.267 113.855C177.346 114.247 177.378 114.812 177.364 115.549C177.428 116.271 177.499 116.828 177.579 117.22C177.594 117.298 177.681 117.73 177.84 118.514C178.06 119.204 178.139 119.596 178.077 119.69C178.252 120.961 178.402 121.706 178.528 121.925C179.172 122.693 179.62 123.092 179.871 123.123C180.216 122.809 180.238 121.907 179.937 120.417C179.921 120.338 179.803 119.954 179.582 119.264C179.44 118.558 179.298 117.852 179.155 117.147C178.997 116.362 178.918 115.766 178.917 115.358ZM197.932 114.95C197.806 114.731 197.828 114.237 198 113.468C198.234 112.604 198.522 111.608 198.866 110.477C199.193 109.269 199.419 108.366 199.544 107.77C199.668 107.173 199.612 106.695 199.376 106.335C199.219 105.958 198.835 106.077 198.224 106.689C197.883 109.451 197.346 111.845 196.612 113.87C196.346 114.576 195.77 116.774 194.881 120.462C193.977 124.072 193.44 126.466 193.269 127.643C193.161 128.318 192.709 130.531 191.916 134.282C191.122 138.033 190.623 140.418 190.421 141.439C190.079 143.385 189.263 147.63 187.971 154.174C188.004 154.739 188.052 155.382 188.116 156.104L189.076 153.584C189.82 147.966 190.768 142.552 191.921 137.341C193.057 132.052 193.955 129.219 194.613 128.841C194.66 128.668 194.948 127.468 195.478 125.239C196.007 123.01 196.537 120.781 197.067 118.552C197.597 116.324 197.885 115.123 197.932 114.95ZM257.045 100.21C257.019 103.724 255.669 107.955 252.994 112.902C250.32 117.848 247.236 122.184 243.744 125.908C246.286 126.374 248.626 127.453 250.762 129.144C252.899 130.835 254.487 132.84 255.526 135.161C256.975 138.296 257.427 141.755 256.885 145.537C256.404 149.225 255.273 152.717 253.49 156.015C251.785 159.297 249.555 162.603 246.799 165.934C244.122 169.249 241.545 172.054 239.07 174.348C236.611 176.722 234.143 178.852 231.668 180.738C230.821 181.399 230.132 181.823 229.599 182.013C229.066 182.202 228.689 182.155 228.469 181.873C228.343 181.654 228.248 181.387 228.185 181.074C228.122 180.76 228.098 180.438 228.113 180.109C228.222 179.842 228.23 179.677 228.136 179.615C228.041 179.552 227.908 179.701 227.736 180.062C227.454 180.283 226.984 180.581 226.326 180.959C225.762 181.399 225.386 181.761 225.198 182.043C225.01 182.326 224.956 182.664 225.035 183.056C224.439 183.339 223.969 183.434 223.623 183.34C223.294 183.325 223.074 183.247 222.964 183.106C222.948 183.028 222.861 182.8 222.704 182.424C222.641 182.11 222.546 181.844 222.42 181.624C221.964 180.982 221.908 180.504 222.253 180.189C222.786 179.592 223.388 178.94 224.062 178.233C224.782 177.353 225.855 175.994 227.279 174.156C227.733 173.575 227.85 173.143 227.63 172.861C226.408 173.679 224.904 174.921 223.118 176.587C223.055 176.681 223.024 176.728 223.024 176.728C222.82 176.933 222.507 177.2 222.084 177.53C221.677 177.939 221.371 178.245 221.168 178.449C220.901 178.748 220.651 178.921 220.415 178.968C220.259 179 220.086 178.953 219.897 178.828C219.725 178.781 219.536 178.656 219.332 178.453C219.128 178.249 218.931 178.084 218.743 177.959C218.633 177.818 218.468 177.607 218.248 177.325C218.122 177.105 218.051 176.956 218.035 176.878C217.626 176.471 217.226 176.103 216.833 175.774C216.723 175.633 216.699 175.515 216.762 175.421L216.478 174.621C216.572 174.276 216.649 173.852 216.711 173.35C216.836 172.754 216.913 171.922 216.942 170.855C217.05 169.772 217.026 169.043 216.868 168.666C216.711 168.29 216.209 168.636 215.364 169.704L214.456 175.519L214.011 176.955L212.129 177.335C212.344 174.761 212.66 171.066 213.075 166.249C213.397 161.369 213.619 158.427 213.743 157.422L217.642 109.995L215.172 111.105L212.28 112.546L211.479 112.217L209.457 113.115L209.127 112.692C209.095 112.535 209.103 112.37 209.149 112.198C209.196 112.025 209.29 111.884 209.431 111.774C209.556 111.585 209.721 111.389 209.924 111.185C210.128 110.98 210.261 110.831 210.324 110.737C210.527 110.532 210.668 110.422 210.747 110.407C210.825 110.391 211.17 110.28 211.782 110.075C212.142 109.839 212.393 109.666 212.534 109.556C212.675 109.446 212.738 109.352 212.722 109.274C212.706 109.195 212.682 109.078 212.651 108.921C212.619 108.764 212.627 108.599 212.673 108.426C212.767 108.081 212.657 107.94 212.343 108.003C212.108 108.051 211.771 108.2 211.332 108.452C211.034 108.594 210.846 108.673 210.767 108.689C210.329 108.94 209.881 108.949 209.426 108.714C209.033 108.385 208.931 108.08 209.119 107.797C209.228 107.53 209.087 107.436 208.695 107.515L207.354 108.153C206.884 108.248 206.609 108.099 206.53 107.707C206.482 107.064 206.434 106.625 206.386 106.389L206.88 105.8C207.945 105.014 208.619 104.307 208.9 103.679C209.088 103.396 208.946 103.302 208.476 103.397C207.456 103.603 206.579 104.106 205.843 104.908C205.482 105.144 205.263 105.27 205.184 105.285C205.106 105.301 204.988 105.121 204.83 104.745C204.751 104.353 204.657 104.086 204.547 103.945C204.437 103.804 204.287 103.467 204.098 102.934C203.909 102.401 203.712 102.032 203.508 101.829C203.319 101.703 204.652 101.027 207.505 99.7981C210.358 98.5696 213.408 97.3015 216.653 95.9939C219.899 94.6863 221.522 94.0325 221.522 94.0325C221.617 94.911 221.799 95.4049 222.065 95.5143C222.253 95.2315 223.005 94.7125 224.322 93.9573C225.701 93.1077 226.391 92.479 226.39 92.0711C228.099 91.2367 232.254 89.7864 238.856 87.7202C242.086 86.7421 244.87 86.3844 247.209 86.6473C249.625 86.8943 251.43 87.5502 252.625 88.6151C253.819 89.68 254.786 91.0355 255.526 92.6817C256.25 94.2494 256.692 95.6293 256.851 96.8215C257.01 98.0136 257.074 99.1431 257.045 100.21ZM217.228 158.311C217.18 158.076 217.156 157.754 217.155 157.346C217.155 156.938 217.131 156.617 217.083 156.381C217.02 156.068 216.98 155.872 216.965 155.793C216.823 155.903 216.738 156.288 216.708 156.947L216.36 160.077C216.376 160.156 216.337 160.572 216.244 161.325C216.214 161.984 216.191 162.478 216.176 162.808C216.177 163.623 216.194 164.314 216.227 164.879L216.559 166.525C217.057 164.14 217.282 162.625 217.234 161.982C217.155 161.59 217.153 160.366 217.228 158.311ZM226.326 167.003C228.676 164.897 230.822 162.791 232.764 160.686C234.706 158.58 236.577 156.325 238.377 153.922C240.162 151.44 241.397 149.069 242.084 146.809C242.77 144.548 242.744 142.595 242.004 140.949C241.799 140.337 241.288 139.828 240.471 139.422C239.639 138.937 238.634 138.609 237.457 138.438C236.28 138.268 235.104 138.301 233.927 138.538C233.849 138.554 233.574 138.609 233.104 138.704C232.696 138.705 232.296 138.745 231.904 138.824C231.496 138.825 231.292 138.825 231.292 138.825C231.214 138.841 231.167 138.809 231.151 138.731C231.135 138.653 231.15 138.527 231.197 138.354C231.228 138.103 231.189 137.907 231.078 137.766C231.125 137.594 231.235 137.531 231.408 137.577C231.565 137.546 231.808 137.538 232.137 137.553C232.451 137.489 232.647 137.45 232.725 137.434C232.945 137.308 233.03 136.924 232.982 136.28C232.966 136.202 232.872 136.139 232.7 136.093C232.511 135.967 232.283 135.85 232.016 135.741C231.828 135.616 231.726 135.514 231.71 135.435C231.678 135.279 231.803 134.886 232.085 134.258C232.35 133.552 232.491 133.034 232.506 132.704C232.537 132.453 232.466 132.304 232.293 132.257C232.105 132.132 231.869 131.976 231.586 131.788L231.302 130.376L230.029 129.531C230.029 129.531 230.108 129.515 230.265 129.484C230.5 129.436 230.727 129.35 230.947 129.224C231.229 129.004 231.495 128.705 231.745 128.328C232.246 127.574 231.9 127.277 230.708 127.435L229.532 127.673C229.532 127.673 229.454 127.689 229.297 127.72C229.313 128.207 229.244 129.077 229.089 130.333C228.997 131.494 228.936 132.404 228.906 133.063C228.813 134.224 228.714 135.55 228.606 137.041C228.483 138.453 228.368 139.905 228.26 141.395C228.137 142.807 228.03 144.094 227.937 145.255C227.907 145.914 227.846 146.62 227.753 147.374C227.738 148.111 227.708 148.974 227.663 149.963C227.602 150.873 227.54 151.579 227.478 152.081C227.463 152.41 227.33 152.968 227.081 153.753C226.909 154.522 226.824 155.11 226.825 155.518C226.825 155.926 226.842 156.616 226.875 157.589C226.987 158.546 227.011 159.275 226.95 159.777C226.641 162.696 226.433 165.105 226.326 167.003ZM240.878 115.346L240.855 115.228L240.948 114.475L240.854 114.616L240.76 114.758C240.619 114.868 240.462 115.103 240.29 115.464C240.118 115.825 239.962 116.061 239.821 116.171C239.758 116.265 239.633 116.454 239.445 116.737C239.257 117.019 239.078 117.341 238.906 117.702C238.718 117.985 238.499 118.315 238.248 118.692C237.982 118.99 237.755 119.281 237.567 119.564C237.129 120.223 236.738 120.71 236.393 121.025C236.189 121.229 235.79 121.677 235.195 122.368C234.584 122.981 233.997 123.508 233.432 123.948C234.248 123.947 234.899 123.734 235.385 123.309C235.933 122.791 236.34 122.382 236.606 122.083C236.732 121.895 237.139 121.486 237.828 120.858C238.502 120.151 238.838 119.797 238.838 119.797C238.979 119.687 239.105 119.498 239.214 119.232C239.402 118.949 239.574 118.792 239.731 118.76C240.154 118.43 240.537 117.292 240.878 115.346ZM231.194 122.563C231.602 122.155 232.079 121.691 232.628 121.172C233.176 120.654 233.889 119.939 234.766 119.027C235.705 118.021 236.567 117.032 237.35 116.058C238.211 115.068 239.048 113.96 239.862 112.735C240.739 111.416 241.427 110.175 241.927 109.013C242.49 107.757 242.888 106.494 243.121 105.222C243.433 103.935 243.47 102.704 243.232 101.527C243.074 100.743 242.313 100.407 240.948 100.519C239.662 100.615 238.109 101.01 236.29 101.704C234.55 102.381 232.778 103.106 230.975 103.878C229.251 104.634 227.8 105.334 226.625 105.979L224.744 106.971C225.057 106.908 225.41 106.836 225.802 106.757C226.257 106.584 226.955 106.402 227.896 106.213C228.837 106.023 229.575 106.037 230.108 106.256C230.721 106.459 230.972 106.898 230.864 107.573L229.62 123.86L231.194 122.563Z" fill="#FC51D7"/>
</g>
<defs>
<radialGradient id="paint0_radial_3_499" cx="0" cy="0" r="1" gradientUnits="userSpaceOnUse" gradientTransform="translate(356.505 209.345) rotate(85.8518) scale(2.03947)">
<stop stop-color="#5DE530"/>
<stop offset="1" stop-color="#4CB728" stop-opacity="0.7"/>
</radialGradient>
<radialGradient id="paint1_radial_3_499" cx="0" cy="0" r="1" gradientUnits="userSpaceOnUse" gradientTransform="translate(361.967 206.78) rotate(85.8518) scale(2.03947 2.03948)">
<stop stop-color="#5DE530"/>
<stop offset="1" stop-color="#4CB728" stop-opacity="0.7"/>
</radialGradient>
<radialGradient id="paint2_radial_3_499" cx="0" cy="0" r="1" gradientUnits="userSpaceOnUse" gradientTransform="translate(366.915 210.757) rotate(85.8518) scale(2.03947 2.03948)">
<stop stop-color="#5DE530"/>
<stop offset="1" stop-color="#4CB728" stop-opacity="0.7"/>
</radialGradient>
<radialGradient id="paint3_radial_3_499" cx="0" cy="0" r="1" gradientUnits="userSpaceOnUse" gradientTransform="translate(372.141 208.21) rotate(85.8518) scale(2.03947)">
<stop stop-color="#5DE530"/>
<stop offset="1" stop-color="#4CB728" stop-opacity="0.7"/>
</radialGradient>
<radialGradient id="paint4_radial_3_499" cx="0" cy="0" r="1" gradientUnits="userSpaceOnUse" gradientTransform="translate(341.463 202.033) rotate(85.8518) scale(2.03947)">
<stop stop-color="#5DE530"/>
<stop offset="1" stop-color="#4CB728" stop-opacity="0.7"/>
</radialGradient>
<radialGradient id="paint5_radial_3_499" cx="0" cy="0" r="1" gradientUnits="userSpaceOnUse" gradientTransform="translate(346.418 201.673) rotate(85.8518) scale(2.03947)">
<stop stop-color="#5DE530"/>
<stop offset="1" stop-color="#4CB728" stop-opacity="0.7"/>
</radialGradient>
<radialGradient id="paint6_radial_3_499" cx="0" cy="0" r="1" gradientUnits="userSpaceOnUse" gradientTransform="translate(335.632 197.237) rotate(85.8518) scale(2.03948)">
<stop stop-color="#5DE530"/>
<stop offset="1" stop-color="#4CB728" stop-opacity="0.7"/>
</radialGradient>
<radialGradient id="paint7_radial_3_499" cx="0" cy="0" r="1" gradientUnits="userSpaceOnUse" gradientTransform="translate(341.086 196.842) rotate(85.8518) scale(2.03948 2.03947)">
<stop stop-color="#5DE530"/>
<stop offset="1" stop-color="#4CB728" stop-opacity="0.7"/>
</radialGradient>
<radialGradient id="paint8_radial_3_499" cx="0" cy="0" r="1" gradientUnits="userSpaceOnUse" gradientTransform="translate(346.042 196.482) rotate(85.8518) scale(2.03948 2.03947)">
<stop stop-color="#5DE530"/>
<stop offset="1" stop-color="#4CB728" stop-opacity="0.7"/>
</radialGradient>
<radialGradient id="paint9_radial_3_499" cx="0" cy="0" r="1" gradientUnits="userSpaceOnUse" gradientTransform="translate(351.26 196.104) rotate(85.8518) scale(2.03948 2.03947)">
<stop stop-color="#5DE530"/>
<stop offset="1" stop-color="#4CB728" stop-opacity="0.7"/>
</radialGradient>
<radialGradient id="paint10_radial_3_499" cx="0" cy="0" r="1" gradientUnits="userSpaceOnUse" gradientTransform="translate(335.237 191.797) rotate(85.8518) scale(2.03947 2.03948)">
<stop stop-color="#5DE530"/>
<stop offset="1" stop-color="#4CB728" stop-opacity="0.7"/>
</radialGradient>
<radialGradient id="paint11_radial_3_499" cx="0" cy="0" r="1" gradientUnits="userSpaceOnUse" gradientTransform="translate(340.692 191.401) rotate(85.8518) scale(2.03947)">
<stop stop-color="#5DE530"/>
<stop offset="1" stop-color="#4CB728" stop-opacity="0.7"/>
</radialGradient>
<radialGradient id="paint12_radial_3_499" cx="0" cy="0" r="1" gradientUnits="userSpaceOnUse" gradientTransform="translate(345.647 191.042) rotate(85.8518) scale(2.03947)">
<stop stop-color="#5DE530"/>
<stop offset="1" stop-color="#4CB728" stop-opacity="0.7"/>
</radialGradient>
<radialGradient id="paint13_radial_3_499" cx="0" cy="0" r="1" gradientUnits="userSpaceOnUse" gradientTransform="translate(350.866 190.663) rotate(85.8518) scale(2.03947)">
<stop stop-color="#5DE530"/>
<stop offset="1" stop-color="#4CB728" stop-opacity="0.7"/>
</radialGradient>
<radialGradient id="paint14_radial_3_499" cx="0" cy="0" r="1" gradientUnits="userSpaceOnUse" gradientTransform="translate(334.865 186.668) rotate(85.8518) scale(2.03948)">
<stop stop-color="#5DE530"/>
<stop offset="1" stop-color="#4CB728" stop-opacity="0.7"/>
</radialGradient>
<radialGradient id="paint15_radial_3_499" cx="0" cy="0" r="1" gradientUnits="userSpaceOnUse" gradientTransform="translate(340.32 186.272) rotate(85.8518) scale(2.03948 2.03947)">
<stop stop-color="#5DE530"/>
<stop offset="1" stop-color="#4CB728" stop-opacity="0.7"/>
</radialGradient>
<radialGradient id="paint16_radial_3_499" cx="0" cy="0" r="1" gradientUnits="userSpaceOnUse" gradientTransform="translate(345.275 185.913) rotate(85.8518) scale(2.03948 2.03947)">
<stop stop-color="#5DE530"/>
<stop offset="1" stop-color="#4CB728" stop-opacity="0.7"/>
</radialGradient>
<radialGradient id="paint17_radial_3_499" cx="0" cy="0" r="1" gradientUnits="userSpaceOnUse" gradientTransform="translate(350.494 185.534) rotate(85.8518) scale(2.03948 2.03947)">
<stop stop-color="#5DE530"/>
<stop offset="1" stop-color="#4CB728" stop-opacity="0.7"/>
</radialGradient>
<radialGradient id="paint18_radial_3_499" cx="0" cy="0" r="1" gradientUnits="userSpaceOnUse" gradientTransform="translate(334.493 181.532) rotate(85.8518) scale(2.03948)">
<stop stop-color="#5DE530"/>
<stop offset="1" stop-color="#4CB728" stop-opacity="0.7"/>
</radialGradient>
<radialGradient id="paint19_radial_3_499" cx="0" cy="0" r="1" gradientUnits="userSpaceOnUse" gradientTransform="translate(339.947 181.137) rotate(85.8518) scale(2.03948 2.03947)">
<stop stop-color="#5DE530"/>
<stop offset="1" stop-color="#4CB728" stop-opacity="0.7"/>
</radialGradient>
<radialGradient id="paint20_radial_3_499" cx="0" cy="0" r="1" gradientUnits="userSpaceOnUse" gradientTransform="translate(344.903 180.777) rotate(85.8518) scale(2.03948 2.03947)">
<stop stop-color="#5DE530"/>
<stop offset="1" stop-color="#4CB728" stop-opacity="0.7"/>
</radialGradient>
<radialGradient id="paint21_radial_3_499" cx="0" cy="0" r="1" gradientUnits="userSpaceOnUse" gradientTransform="translate(350.121 180.399) rotate(85.8518) scale(2.03948 2.03947)">
<stop stop-color="#5DE530"/>
<stop offset="1" stop-color="#4CB728" stop-opacity="0.7"/>
</radialGradient>
<radialGradient id="paint22_radial_3_499" cx="0" cy="0" r="1" gradientUnits="userSpaceOnUse" gradientTransform="translate(334.153 176.847) rotate(85.8518) scale(2.03947 2.03948)">
<stop stop-color="#5DE530"/>
<stop offset="1" stop-color="#4CB728" stop-opacity="0.7"/>
</radialGradient>
<radialGradient id="paint23_radial_3_499" cx="0" cy="0" r="1" gradientUnits="userSpaceOnUse" gradientTransform="translate(339.608 176.452) rotate(85.8518) scale(2.03947)">
<stop stop-color="#5DE530"/>
<stop offset="1" stop-color="#4CB728" stop-opacity="0.7"/>
</radialGradient>
<radialGradient id="paint24_radial_3_499" cx="0" cy="0" r="1" gradientUnits="userSpaceOnUse" gradientTransform="translate(344.563 176.092) rotate(85.8518) scale(2.03947)">
<stop stop-color="#5DE530"/>
<stop offset="1" stop-color="#4CB728" stop-opacity="0.7"/>
</radialGradient>
<radialGradient id="paint25_radial_3_499" cx="0" cy="0" r="1" gradientUnits="userSpaceOnUse" gradientTransform="translate(349.782 175.714) rotate(85.8518) scale(2.03947)">
<stop stop-color="#5DE530"/>
<stop offset="1" stop-color="#4CB728" stop-opacity="0.7"/>
</radialGradient>
<radialGradient id="paint26_radial_3_499" cx="0" cy="0" r="1" gradientUnits="userSpaceOnUse" gradientTransform="translate(333.762 171.448) rotate(85.8518) scale(2.03947 2.03948)">
<stop stop-color="#5DE530"/>
<stop offset="1" stop-color="#4CB728" stop-opacity="0.7"/>
</radialGradient>
<radialGradient id="paint27_radial_3_499" cx="0" cy="0" r="1" gradientUnits="userSpaceOnUse" gradientTransform="translate(339.216 171.053) rotate(85.8518) scale(2.03947)">
<stop stop-color="#5DE530"/>
<stop offset="1" stop-color="#4CB728" stop-opacity="0.7"/>
</radialGradient>
<radialGradient id="paint28_radial_3_499" cx="0" cy="0" r="1" gradientUnits="userSpaceOnUse" gradientTransform="translate(344.171 170.693) rotate(85.8518) scale(2.03947)">
<stop stop-color="#5DE530"/>
<stop offset="1" stop-color="#4CB728" stop-opacity="0.7"/>
</radialGradient>
<radialGradient id="paint29_radial_3_499" cx="0" cy="0" r="1" gradientUnits="userSpaceOnUse" gradientTransform="translate(349.39 170.315) rotate(85.8518) scale(2.03947)">
<stop stop-color="#5DE530"/>
<stop offset="1" stop-color="#4CB728" stop-opacity="0.7"/>
</radialGradient>
<radialGradient id="paint30_radial_3_499" cx="0" cy="0" r="1" gradientUnits="userSpaceOnUse" gradientTransform="translate(333.402 166.493) rotate(85.8518) scale(2.03948)">
<stop stop-color="#5DE530"/>
<stop offset="1" stop-color="#4CB728" stop-opacity="0.7"/>
</radialGradient>
<radialGradient id="paint31_radial_3_499" cx="0" cy="0" r="1" gradientUnits="userSpaceOnUse" gradientTransform="translate(338.857 166.097) rotate(85.8518) scale(2.03948 2.03947)">
<stop stop-color="#5DE530"/>
<stop offset="1" stop-color="#4CB728" stop-opacity="0.7"/>
</radialGradient>
<radialGradient id="paint32_radial_3_499" cx="0" cy="0" r="1" gradientUnits="userSpaceOnUse" gradientTransform="translate(343.812 165.738) rotate(85.8518) scale(2.03948 2.03947)">
<stop stop-color="#5DE530"/>
<stop offset="1" stop-color="#4CB728" stop-opacity="0.7"/>
</radialGradient>
<radialGradient id="paint33_radial_3_499" cx="0" cy="0" r="1" gradientUnits="userSpaceOnUse" gradientTransform="translate(349.031 165.36) rotate(85.8518) scale(2.03948 2.03947)">
<stop stop-color="#5DE530"/>
<stop offset="1" stop-color="#4CB728" stop-opacity="0.7"/>
</radialGradient>
<radialGradient id="paint34_radial_3_499" cx="0" cy="0" r="1" gradientUnits="userSpaceOnUse" gradientTransform="translate(333.043 161.538) rotate(85.8518) scale(2.03947 2.03948)">
<stop stop-color="#5DE530"/>
<stop offset="1" stop-color="#4CB728" stop-opacity="0.7"/>
</radialGradient>
<radialGradient id="paint35_radial_3_499" cx="0" cy="0" r="1" gradientUnits="userSpaceOnUse" gradientTransform="translate(338.497 161.142) rotate(85.8518) scale(2.03947)">
<stop stop-color="#5DE530"/>
<stop offset="1" stop-color="#4CB728" stop-opacity="0.7"/>
</radialGradient>
<radialGradient id="paint36_radial_3_499" cx="0" cy="0" r="1" gradientUnits="userSpaceOnUse" gradientTransform="translate(343.453 160.783) rotate(85.8518) scale(2.03947)">
<stop stop-color="#5DE530"/>
<stop offset="1" stop-color="#4CB728" stop-opacity="0.7"/>
</radialGradient>
<radialGradient id="paint37_radial_3_499" cx="0" cy="0" r="1" gradientUnits="userSpaceOnUse" gradientTransform="translate(348.671 160.404) rotate(85.8518) scale(2.03947)">
<stop stop-color="#5DE530"/>
<stop offset="1" stop-color="#4CB728" stop-opacity="0.7"/>
</radialGradient>
<radialGradient id="paint38_radial_3_499" cx="0" cy="0" r="1" gradientUnits="userSpaceOnUse" gradientTransform="translate(338.112 155.833) rotate(85.8518) scale(2.03947)">
<stop stop-color="#5DE530"/>
<stop offset="1" stop-color="#4CB728" stop-opacity="0.7"/>
</radialGradient>
<radialGradient id="paint39_radial_3_499" cx="0" cy="0" r="1" gradientUnits="userSpaceOnUse" gradientTransform="translate(343.068 155.474) rotate(85.8518) scale(2.03947)">
<stop stop-color="#5DE530"/>
<stop offset="1" stop-color="#4CB728" stop-opacity="0.7"/>
</radialGradient>
<radialGradient id="paint40_radial_3_499" cx="0" cy="0" r="1" gradientUnits="userSpaceOnUse" gradientTransform="translate(384.822 198.781) rotate(85.8518) scale(2.03947)">
<stop stop-color="#5DE530"/>
<stop offset="1" stop-color="#4CB728" stop-opacity="0.7"/>
</radialGradient>
<radialGradient id="paint41_radial_3_499" cx="0" cy="0" r="1" gradientUnits="userSpaceOnUse" gradientTransform="translate(389.778 198.421) rotate(85.8518) scale(2.03947)">
<stop stop-color="#5DE530"/>
<stop offset="1" stop-color="#4CB728" stop-opacity="0.7"/>
</radialGradient>
<radialGradient id="paint42_radial_3_499" cx="0" cy="0" r="1" gradientUnits="userSpaceOnUse" gradientTransform="translate(378.991 193.985) rotate(85.8518) scale(2.03948)">
<stop stop-color="#5DE530"/>
<stop offset="1" stop-color="#4CB728" stop-opacity="0.7"/>
</radialGradient>
<radialGradient id="paint43_radial_3_499" cx="0" cy="0" r="1" gradientUnits="userSpaceOnUse" gradientTransform="translate(384.446 193.59) rotate(85.8518) scale(2.03948 2.03947)">
<stop stop-color="#5DE530"/>
<stop offset="1" stop-color="#4CB728" stop-opacity="0.7"/>
</radialGradient>
<radialGradient id="paint44_radial_3_499" cx="0" cy="0" r="1" gradientUnits="userSpaceOnUse" gradientTransform="translate(389.401 193.23) rotate(85.8518) scale(2.03948 2.03947)">
<stop stop-color="#5DE530"/>
<stop offset="1" stop-color="#4CB728" stop-opacity="0.7"/>
</radialGradient>
<radialGradient id="paint45_radial_3_499" cx="0" cy="0" r="1" gradientUnits="userSpaceOnUse" gradientTransform="translate(394.62 192.852) rotate(85.8518) scale(2.03948 2.03947)">
<stop stop-color="#5DE530"/>
<stop offset="1" stop-color="#4CB728" stop-opacity="0.7"/>
</radialGradient>
<radialGradient id="paint46_radial_3_499" cx="0" cy="0" r="1" gradientUnits="userSpaceOnUse" gradientTransform="translate(378.597 188.545) rotate(85.8518) scale(2.03947 2.03948)">
<stop stop-color="#5DE530"/>
<stop offset="1" stop-color="#4CB728" stop-opacity="0.7"/>
</radialGradient>
<radialGradient id="paint47_radial_3_499" cx="0" cy="0" r="1" gradientUnits="userSpaceOnUse" gradientTransform="translate(384.051 188.149) rotate(85.8518) scale(2.03947)">
<stop stop-color="#5DE530"/>
<stop offset="1" stop-color="#4CB728" stop-opacity="0.7"/>
</radialGradient>
<radialGradient id="paint48_radial_3_499" cx="0" cy="0" r="1" gradientUnits="userSpaceOnUse" gradientTransform="translate(389.007 187.79) rotate(85.8518) scale(2.03947)">
<stop stop-color="#5DE530"/>
<stop offset="1" stop-color="#4CB728" stop-opacity="0.7"/>
</radialGradient>
<radialGradient id="paint49_radial_3_499" cx="0" cy="0" r="1" gradientUnits="userSpaceOnUse" gradientTransform="translate(394.225 187.411) rotate(85.8518) scale(2.03947)">
<stop stop-color="#5DE530"/>
<stop offset="1" stop-color="#4CB728" stop-opacity="0.7"/>
</radialGradient>
<radialGradient id="paint50_radial_3_499" cx="0" cy="0" r="1" gradientUnits="userSpaceOnUse" gradientTransform="translate(378.225 183.416) rotate(85.8518) scale(2.03948)">
<stop stop-color="#5DE530"/>
<stop offset="1" stop-color="#4CB728" stop-opacity="0.7"/>
</radialGradient>
<radialGradient id="paint51_radial_3_499" cx="0" cy="0" r="1" gradientUnits="userSpaceOnUse" gradientTransform="translate(383.679 183.02) rotate(85.8518) scale(2.03948 2.03947)">
<stop stop-color="#5DE530"/>
<stop offset="1" stop-color="#4CB728" stop-opacity="0.7"/>
</radialGradient>
<radialGradient id="paint52_radial_3_499" cx="0" cy="0" r="1" gradientUnits="userSpaceOnUse" gradientTransform="translate(388.635 182.661) rotate(85.8518) scale(2.03948 2.03947)">
<stop stop-color="#5DE530"/>
<stop offset="1" stop-color="#4CB728" stop-opacity="0.7"/>
</radialGradient>
<radialGradient id="paint53_radial_3_499" cx="0" cy="0" r="1" gradientUnits="userSpaceOnUse" gradientTransform="translate(393.853 182.283) rotate(85.8518) scale(2.03948 2.03947)">
<stop stop-color="#5DE530"/>
<stop offset="1" stop-color="#4CB728" stop-opacity="0.7"/>
</radialGradient>
<radialGradient id="paint54_radial_3_499" cx="0" cy="0" r="1" gradientUnits="userSpaceOnUse" gradientTransform="translate(377.852 178.28) rotate(85.8518) scale(2.03948)">
<stop stop-color="#5DE530"/>
<stop offset="1" stop-color="#4CB728" stop-opacity="0.7"/>
</radialGradient>
<radialGradient id="paint55_radial_3_499" cx="0" cy="0" r="1" gradientUnits="userSpaceOnUse" gradientTransform="translate(383.307 177.885) rotate(85.8518) scale(2.03948 2.03947)">
<stop stop-color="#5DE530"/>
<stop offset="1" stop-color="#4CB728" stop-opacity="0.7"/>
</radialGradient>
<radialGradient id="paint56_radial_3_499" cx="0" cy="0" r="1" gradientUnits="userSpaceOnUse" gradientTransform="translate(388.262 177.525) rotate(85.8518) scale(2.03948 2.03947)">
<stop stop-color="#5DE530"/>
<stop offset="1" stop-color="#4CB728" stop-opacity="0.7"/>
</radialGradient>
<radialGradient id="paint57_radial_3_499" cx="0" cy="0" r="1" gradientUnits="userSpaceOnUse" gradientTransform="translate(393.481 177.147) rotate(85.8518) scale(2.03948 2.03947)">
<stop stop-color="#5DE530"/>
<stop offset="1" stop-color="#4CB728" stop-opacity="0.7"/>
</radialGradient>
<radialGradient id="paint58_radial_3_499" cx="0" cy="0" r="1" gradientUnits="userSpaceOnUse" gradientTransform="translate(377.513 173.595) rotate(85.8518) scale(2.03947 2.03948)">
<stop stop-color="#5DE530"/>
<stop offset="1" stop-color="#4CB728" stop-opacity="0.7"/>
</radialGradient>
<radialGradient id="paint59_radial_3_499" cx="0" cy="0" r="1" gradientUnits="userSpaceOnUse" gradientTransform="translate(382.967 173.2) rotate(85.8518) scale(2.03947)">
<stop stop-color="#5DE530"/>
<stop offset="1" stop-color="#4CB728" stop-opacity="0.7"/>
</radialGradient>
<radialGradient id="paint60_radial_3_499" cx="0" cy="0" r="1" gradientUnits="userSpaceOnUse" gradientTransform="translate(387.922 172.84) rotate(85.8518) scale(2.03947)">
<stop stop-color="#5DE530"/>
<stop offset="1" stop-color="#4CB728" stop-opacity="0.7"/>
</radialGradient>
<radialGradient id="paint61_radial_3_499" cx="0" cy="0" r="1" gradientUnits="userSpaceOnUse" gradientTransform="translate(393.141 172.462) rotate(85.8518) scale(2.03947)">
<stop stop-color="#5DE530"/>
<stop offset="1" stop-color="#4CB728" stop-opacity="0.7"/>
</radialGradient>
<radialGradient id="paint62_radial_3_499" cx="0" cy="0" r="1" gradientUnits="userSpaceOnUse" gradientTransform="translate(377.121 168.196) rotate(85.8518) scale(2.03947 2.03948)">
<stop stop-color="#5DE530"/>
<stop offset="1" stop-color="#4CB728" stop-opacity="0.7"/>
</radialGradient>
<radialGradient id="paint63_radial_3_499" cx="0" cy="0" r="1" gradientUnits="userSpaceOnUse" gradientTransform="translate(382.575 167.801) rotate(85.8518) scale(2.03947)">
<stop stop-color="#5DE530"/>
<stop offset="1" stop-color="#4CB728" stop-opacity="0.7"/>
</radialGradient>
<radialGradient id="paint64_radial_3_499" cx="0" cy="0" r="1" gradientUnits="userSpaceOnUse" gradientTransform="translate(387.531 167.441) rotate(85.8518) scale(2.03947)">
<stop stop-color="#5DE530"/>
<stop offset="1" stop-color="#4CB728" stop-opacity="0.7"/>
</radialGradient>
<radialGradient id="paint65_radial_3_499" cx="0" cy="0" r="1" gradientUnits="userSpaceOnUse" gradientTransform="translate(392.75 167.063) rotate(85.8518) scale(2.03947)">
<stop stop-color="#5DE530"/>
<stop offset="1" stop-color="#4CB728" stop-opacity="0.7"/>
</radialGradient>
<radialGradient id="paint66_radial_3_499" cx="0" cy="0" r="1" gradientUnits="userSpaceOnUse" gradientTransform="translate(376.762 163.241) rotate(85.8518) scale(2.03948)">
<stop stop-color="#5DE530"/>
<stop offset="1" stop-color="#4CB728" stop-opacity="0.7"/>
</radialGradient>
<radialGradient id="paint67_radial_3_499" cx="0" cy="0" r="1" gradientUnits="userSpaceOnUse" gradientTransform="translate(382.216 162.846) rotate(85.8518) scale(2.03948 2.03947)">
<stop stop-color="#5DE530"/>
<stop offset="1" stop-color="#4CB728" stop-opacity="0.7"/>
</radialGradient>
<radialGradient id="paint68_radial_3_499" cx="0" cy="0" r="1" gradientUnits="userSpaceOnUse" gradientTransform="translate(387.171 162.486) rotate(85.8518) scale(2.03948 2.03947)">
<stop stop-color="#5DE530"/>
<stop offset="1" stop-color="#4CB728" stop-opacity="0.7"/>
</radialGradient>
<radialGradient id="paint69_radial_3_499" cx="0" cy="0" r="1" gradientUnits="userSpaceOnUse" gradientTransform="translate(392.39 162.108) rotate(85.8518) scale(2.03948 2.03947)">
<stop stop-color="#5DE530"/>
<stop offset="1" stop-color="#4CB728" stop-opacity="0.7"/>
</radialGradient>
<radialGradient id="paint70_radial_3_499" cx="0" cy="0" r="1" gradientUnits="userSpaceOnUse" gradientTransform="translate(376.402 158.286) rotate(85.8518) scale(2.03947 2.03948)">
<stop stop-color="#5DE530"/>
<stop offset="1" stop-color="#4CB728" stop-opacity="0.7"/>
</radialGradient>
<radialGradient id="paint71_radial_3_499" cx="0" cy="0" r="1" gradientUnits="userSpaceOnUse" gradientTransform="translate(381.857 157.89) rotate(85.8518) scale(2.03947)">
<stop stop-color="#5DE530"/>
<stop offset="1" stop-color="#4CB728" stop-opacity="0.7"/>
</radialGradient>
<radialGradient id="paint72_radial_3_499" cx="0" cy="0" r="1" gradientUnits="userSpaceOnUse" gradientTransform="translate(386.812 157.531) rotate(85.8518) scale(2.03947)">
<stop stop-color="#5DE530"/>
<stop offset="1" stop-color="#4CB728" stop-opacity="0.7"/>
</radialGradient>
<radialGradient id="paint73_radial_3_499" cx="0" cy="0" r="1" gradientUnits="userSpaceOnUse" gradientTransform="translate(392.031 157.152) rotate(85.8518) scale(2.03947)">
<stop stop-color="#5DE530"/>
<stop offset="1" stop-color="#4CB728" stop-opacity="0.7"/>
</radialGradient>
<radialGradient id="paint74_radial_3_499" cx="0" cy="0" r="1" gradientUnits="userSpaceOnUse" gradientTransform="translate(381.472 152.581) rotate(85.8518) scale(2.03947)">
<stop stop-color="#5DE530"/>
<stop offset="1" stop-color="#4CB728" stop-opacity="0.7"/>
</radialGradient>
<radialGradient id="paint75_radial_3_499" cx="0" cy="0" r="1" gradientUnits="userSpaceOnUse" gradientTransform="translate(386.427 152.222) rotate(85.8518) scale(2.03947)">
<stop stop-color="#5DE530"/>
<stop offset="1" stop-color="#4CB728" stop-opacity="0.7"/>
</radialGradient>
<clipPath id="clip0_3_499">
<rect width="543" height="369.553" fill="white" transform="translate(0 0.77356)"/>
</clipPath>
</defs>
</svg>
