<svg width="22" height="21" viewBox="0 0 22 21" fill="none" xmlns="http://www.w3.org/2000/svg">
<path fill-rule="evenodd" clip-rule="evenodd" d="M15.19 3.57638C14.88 3.2123 14.57 3.04609 14.0973 3.04609H3.63131C3.38332 3.04609 3.18183 2.85614 3.15858 2.60207L3.01133 0.829155C2.98808 0.560052 2.79434 0.339229 2.53085 0.290949L0.682549 0.00680772C0.364811 -0.0414726 0.0625727 0.173018 0.00832483 0.496734C-0.045923 0.813326 0.171069 1.122 0.481056 1.17741C1.17052 1.29865 1.69146 1.86965 1.74911 2.56732L2.36423 10.0111C2.44948 11.0559 3.30195 11.8624 4.33266 11.8624H12.7876C13.7718 11.8624 14.6088 11.1271 14.7483 10.129L15.4845 4.93694C15.5542 4.46284 15.5 3.94046 15.19 3.57638Z" fill="url(#paint0_linear_4_5508)"/>
<g filter="url(#filter0_f_4_5508)">
<rect x="3.68555" y="5.16344" width="9.29414" height="5.57648" rx="1.03268" fill="#E86B35" fill-opacity="0.5"/>
</g>
<foreignObject x="-0.447352" y="-2.03068" width="27.1938" height="27.1941"><div xmlns="http://www.w3.org/1999/xhtml" style="backdrop-filter:blur(2.48px);clip-path:url(#bgblur_0_4_5508_clip_path);height:100%;width:100%"></div></foreignObject><g data-figma-bg-blur-radius="4.95687">
<mask id="path-3-outside-1_4_5508" maskUnits="userSpaceOnUse" x="3.58301" y="2.13275" width="19" height="19" fill="black">
<rect fill="white" x="3.58301" y="2.13275" width="19" height="19"/>
<path fill-rule="evenodd" clip-rule="evenodd" d="M6.25366 6.44503C5.73962 6.44503 5.40254 6.62577 5.06546 7.02167C4.72838 7.41757 4.66939 7.9856 4.74523 8.50113L5.5458 14.147C5.69748 15.2323 6.6076 16.0318 7.67783 16.0318H16.8717C17.9925 16.0318 18.9194 15.1548 19.0121 14.0188L19.7874 4.6368L21.0599 4.41303C21.397 4.35278 21.6329 4.01713 21.574 3.67287C21.515 3.32086 21.1863 3.08762 20.8408 3.14012L18.831 3.4491C18.5444 3.5016 18.3338 3.74172 18.3085 4.03434L18.1484 5.9622C18.1231 6.23847 17.904 6.44503 17.6343 6.44503H6.25366ZM17.0068 17.3922C17.7147 17.3922 18.2877 17.9775 18.2877 18.7004C18.2877 19.4148 17.7147 20 17.0068 20C16.3074 20 15.7343 19.4148 15.7343 18.7004C15.7343 17.9775 16.3074 17.3922 17.0068 17.3922ZM7.52652 17.3922C8.23438 17.3922 8.80742 17.9775 8.80742 18.7004C8.80742 19.4148 8.23438 20 7.52652 20C6.82708 20 6.25404 19.4148 6.25404 18.7004C6.25404 17.9775 6.82708 17.3922 7.52652 17.3922Z"/>
</mask>
<path fill-rule="evenodd" clip-rule="evenodd" d="M6.25366 6.44503C5.73962 6.44503 5.40254 6.62577 5.06546 7.02167C4.72838 7.41757 4.66939 7.9856 4.74523 8.50113L5.5458 14.147C5.69748 15.2323 6.6076 16.0318 7.67783 16.0318H16.8717C17.9925 16.0318 18.9194 15.1548 19.0121 14.0188L19.7874 4.6368L21.0599 4.41303C21.397 4.35278 21.6329 4.01713 21.574 3.67287C21.515 3.32086 21.1863 3.08762 20.8408 3.14012L18.831 3.4491C18.5444 3.5016 18.3338 3.74172 18.3085 4.03434L18.1484 5.9622C18.1231 6.23847 17.904 6.44503 17.6343 6.44503H6.25366ZM17.0068 17.3922C17.7147 17.3922 18.2877 17.9775 18.2877 18.7004C18.2877 19.4148 17.7147 20 17.0068 20C16.3074 20 15.7343 19.4148 15.7343 18.7004C15.7343 17.9775 16.3074 17.3922 17.0068 17.3922ZM7.52652 17.3922C8.23438 17.3922 8.80742 17.9775 8.80742 18.7004C8.80742 19.4148 8.23438 20 7.52652 20C6.82708 20 6.25404 19.4148 6.25404 18.7004C6.25404 17.9775 6.82708 17.3922 7.52652 17.3922Z" fill="#E86B35" fill-opacity="0.35"/>
<path d="M5.06546 7.02167L4.9082 6.88777L5.06546 7.02167ZM4.74523 8.50113L4.94957 8.47107L4.94972 8.47214L4.74523 8.50113ZM5.5458 14.147L5.75029 14.118L5.75034 14.1184L5.5458 14.147ZM19.0121 14.0188L18.8063 14.002L18.8063 14.0018L19.0121 14.0188ZM19.7874 4.6368L19.5816 4.61979C19.5893 4.52622 19.6592 4.44964 19.7517 4.43338L19.7874 4.6368ZM21.0599 4.41303L21.0962 4.61634L21.0957 4.61644L21.0599 4.41303ZM21.574 3.67287L21.3704 3.70775L21.3703 3.707L21.574 3.67287ZM20.8408 3.14012L20.8094 2.93598L20.8098 2.93593L20.8408 3.14012ZM18.831 3.4491L18.7937 3.24586L18.7996 3.24496L18.831 3.4491ZM18.3085 4.03434L18.1027 4.01725L18.1027 4.01656L18.3085 4.03434ZM18.1484 5.9622L18.3542 5.9793L18.3541 5.98102L18.1484 5.9622ZM5.06546 7.02167L4.9082 6.88777C5.08854 6.67597 5.27819 6.51071 5.50134 6.3999C5.72578 6.28846 5.97117 6.23849 6.25366 6.23849V6.44503V6.65157C6.02211 6.65157 5.84194 6.69197 5.68505 6.76987C5.52689 6.84841 5.37945 6.97147 5.22271 7.15556L5.06546 7.02167ZM4.74523 8.50113L4.54089 8.53119C4.46108 7.98867 4.51566 7.34881 4.9082 6.88777L5.06546 7.02167L5.22271 7.15556C4.94109 7.48633 4.8777 7.98253 4.94957 8.47107L4.74523 8.50113ZM5.5458 14.147L5.3413 14.176L4.54074 8.53013L4.74523 8.50113L4.94972 8.47214L5.75029 14.118L5.5458 14.147ZM7.67783 16.0318V16.2384C6.50202 16.2384 5.50684 15.3604 5.34125 14.1756L5.5458 14.147L5.75034 14.1184C5.88813 15.1042 6.71318 15.8253 7.67783 15.8253V16.0318ZM16.8717 16.0318V16.2384H7.67783V16.0318V15.8253H16.8717V16.0318ZM19.0121 14.0188L19.218 14.0356C19.1169 15.2747 18.1041 16.2384 16.8717 16.2384V16.0318V15.8253C17.8809 15.8253 18.722 15.035 18.8063 14.002L19.0121 14.0188ZM19.7874 4.6368L19.9933 4.65381L19.218 14.0358L19.0121 14.0188L18.8063 14.0018L19.5816 4.61979L19.7874 4.6368ZM21.0599 4.41303L21.0957 4.61644L19.8232 4.84021L19.7874 4.6368L19.7517 4.43338L21.0241 4.20961L21.0599 4.41303ZM21.574 3.67287L21.7775 3.63798C21.8555 4.09284 21.5463 4.5359 21.0962 4.61634L21.0599 4.41303L21.0236 4.20971C21.2477 4.16966 21.4104 3.94142 21.3704 3.70775L21.574 3.67287ZM20.8408 3.14012L20.8098 2.93593C21.2661 2.8666 21.6999 3.17466 21.7777 3.63873L21.574 3.67287L21.3703 3.707C21.33 3.46706 21.1066 3.30865 20.8718 3.34431L20.8408 3.14012ZM18.831 3.4491L18.7996 3.24496L20.8094 2.93598L20.8408 3.14012L20.8722 3.34426L18.8623 3.65323L18.831 3.4491ZM18.3085 4.03434L18.1027 4.01656C18.1357 3.63526 18.4118 3.31593 18.7937 3.24594L18.831 3.4491L18.8682 3.65225C18.6771 3.68726 18.5319 3.84817 18.5143 4.05212L18.3085 4.03434ZM18.1484 5.9622L17.9426 5.94511L18.1027 4.01725L18.3085 4.03434L18.5143 4.05143L18.3542 5.9793L18.1484 5.9622ZM17.6343 6.44503V6.23849C17.7917 6.23849 17.9266 6.11889 17.9427 5.94338L18.1484 5.9622L18.3541 5.98102C18.3196 6.35806 18.0163 6.65157 17.6343 6.65157V6.44503ZM6.25366 6.44503V6.23849H17.6343V6.44503V6.65157H6.25366V6.44503ZM18.2877 18.7004H18.0812C18.0812 18.0874 17.5965 17.5988 17.0068 17.5988V17.3922V17.1857C17.8328 17.1857 18.4943 17.8675 18.4943 18.7004H18.2877ZM17.0068 20V19.7935C17.5974 19.7935 18.0812 19.3039 18.0812 18.7004H18.2877H18.4943C18.4943 19.5256 17.832 20.2065 17.0068 20.2065V20ZM15.7343 18.7004H15.9409C15.9409 19.3048 16.4255 19.7935 17.0068 19.7935V20V20.2065C16.1892 20.2065 15.5278 19.5247 15.5278 18.7004H15.7343ZM17.0068 17.3922V17.5988C16.4264 17.5988 15.9409 18.0865 15.9409 18.7004H15.7343H15.5278C15.5278 17.8684 16.1884 17.1857 17.0068 17.1857V17.3922ZM8.80742 18.7004H8.60088C8.60088 18.0874 8.11623 17.5988 7.52652 17.5988V17.3922V17.1857C8.35253 17.1857 9.01396 17.8675 9.01396 18.7004H8.80742ZM7.52652 20V19.7935C8.11711 19.7935 8.60088 19.3039 8.60088 18.7004H8.80742H9.01396C9.01396 19.5256 8.35166 20.2065 7.52652 20.2065V20ZM6.25404 18.7004H6.46058C6.46058 19.3048 6.94523 19.7935 7.52652 19.7935V20V20.2065C6.70893 20.2065 6.0475 19.5247 6.0475 18.7004H6.25404ZM7.52652 17.3922V17.5988C6.9461 17.5988 6.46058 18.0865 6.46058 18.7004H6.25404H6.0475C6.0475 17.8684 6.70805 17.1857 7.52652 17.1857V17.3922Z" fill="url(#paint1_linear_4_5508)" mask="url(#path-3-outside-1_4_5508)"/>
</g>
<foreignObject x="5.296" y="6.53011" width="9.79448" height="7.48707"><div xmlns="http://www.w3.org/1999/xhtml" style="backdrop-filter:blur(1.55px);clip-path:url(#bgblur_1_4_5508_clip_path);height:100%;width:100%"></div></foreignObject><g filter="url(#filter2_d_4_5508)" data-figma-bg-blur-radius="3.09805">
<mask id="path-5-inside-2_4_5508" fill="white">
<path fill-rule="evenodd" clip-rule="evenodd" d="M9.02613 10.9191H11.3604C11.7143 10.9191 11.9924 10.6265 11.9924 10.2736C11.9924 9.91217 11.7143 9.62816 11.3604 9.62816H9.02613C8.67219 9.62816 8.3941 9.91217 8.3941 10.2736C8.3941 10.6265 8.67219 10.9191 9.02613 10.9191Z"/>
</mask>
<path fill-rule="evenodd" clip-rule="evenodd" d="M9.02613 10.9191H11.3604C11.7143 10.9191 11.9924 10.6265 11.9924 10.2736C11.9924 9.91217 11.7143 9.62816 11.3604 9.62816H9.02613C8.67219 9.62816 8.3941 9.91217 8.3941 10.2736C8.3941 10.6265 8.67219 10.9191 9.02613 10.9191Z" fill="url(#paint2_linear_4_5508)"/>
<path d="M9.02613 10.9191V10.8778H11.3604V10.9191V10.9604H9.02613V10.9191ZM11.3604 10.9191V10.8778C11.6904 10.8778 11.9511 10.6049 11.9511 10.2736H11.9924H12.0337C12.0337 10.6481 11.7383 10.9604 11.3604 10.9604V10.9191ZM11.9924 10.2736H11.9511C11.9511 9.93416 11.6907 9.66947 11.3604 9.66947V9.62816V9.58685C11.738 9.58685 12.0337 9.89019 12.0337 10.2736H11.9924ZM11.3604 9.62816V9.66947H9.02613V9.62816V9.58685H11.3604V9.62816ZM9.02613 9.62816V9.66947C8.69582 9.66947 8.43541 9.93416 8.43541 10.2736H8.3941H8.3528C8.3528 9.89019 8.64856 9.58685 9.02613 9.58685V9.62816ZM8.3941 10.2736H8.43541C8.43541 10.6049 8.69618 10.8778 9.02613 10.8778V10.9191V10.9604C8.64821 10.9604 8.3528 10.6481 8.3528 10.2736H8.3941Z" fill="url(#paint3_linear_4_5508)" fill-opacity="0.5" mask="url(#path-5-inside-2_4_5508)"/>
</g>
<defs>
<filter id="filter0_f_4_5508" x="0.794037" y="2.27193" width="15.0772" height="11.3595" filterUnits="userSpaceOnUse" color-interpolation-filters="sRGB">
<feFlood flood-opacity="0" result="BackgroundImageFix"/>
<feBlend mode="normal" in="SourceGraphic" in2="BackgroundImageFix" result="shape"/>
<feGaussianBlur stdDeviation="1.44575" result="effect1_foregroundBlur_4_5508"/>
</filter>
<clipPath id="bgblur_0_4_5508_clip_path" transform="translate(0.447352 2.03068)"><path fill-rule="evenodd" clip-rule="evenodd" d="M6.25366 6.44503C5.73962 6.44503 5.40254 6.62577 5.06546 7.02167C4.72838 7.41757 4.66939 7.9856 4.74523 8.50113L5.5458 14.147C5.69748 15.2323 6.6076 16.0318 7.67783 16.0318H16.8717C17.9925 16.0318 18.9194 15.1548 19.0121 14.0188L19.7874 4.6368L21.0599 4.41303C21.397 4.35278 21.6329 4.01713 21.574 3.67287C21.515 3.32086 21.1863 3.08762 20.8408 3.14012L18.831 3.4491C18.5444 3.5016 18.3338 3.74172 18.3085 4.03434L18.1484 5.9622C18.1231 6.23847 17.904 6.44503 17.6343 6.44503H6.25366ZM17.0068 17.3922C17.7147 17.3922 18.2877 17.9775 18.2877 18.7004C18.2877 19.4148 17.7147 20 17.0068 20C16.3074 20 15.7343 19.4148 15.7343 18.7004C15.7343 17.9775 16.3074 17.3922 17.0068 17.3922ZM7.52652 17.3922C8.23438 17.3922 8.80742 17.9775 8.80742 18.7004C8.80742 19.4148 8.23438 20 7.52652 20C6.82708 20 6.25404 19.4148 6.25404 18.7004C6.25404 17.9775 6.82708 17.3922 7.52652 17.3922Z"/>
</clipPath><filter id="filter2_d_4_5508" x="5.296" y="6.53011" width="9.79448" height="7.48707" filterUnits="userSpaceOnUse" color-interpolation-filters="sRGB">
<feFlood flood-opacity="0" result="BackgroundImageFix"/>
<feColorMatrix in="SourceAlpha" type="matrix" values="0 0 0 0 0 0 0 0 0 0 0 0 0 0 0 0 0 0 127 0" result="hardAlpha"/>
<feOffset dx="1.03268" dy="1.03268"/>
<feGaussianBlur stdDeviation="1.03268"/>
<feColorMatrix type="matrix" values="0 0 0 0 0.909804 0 0 0 0 0.419608 0 0 0 0 0.207843 0 0 0 0.5 0"/>
<feBlend mode="normal" in2="BackgroundImageFix" result="effect1_dropShadow_4_5508"/>
<feBlend mode="normal" in="SourceGraphic" in2="effect1_dropShadow_4_5508" result="shape"/>
</filter>
<clipPath id="bgblur_1_4_5508_clip_path" transform="translate(-5.296 -6.53011)"><path fill-rule="evenodd" clip-rule="evenodd" d="M9.02613 10.9191H11.3604C11.7143 10.9191 11.9924 10.6265 11.9924 10.2736C11.9924 9.91217 11.7143 9.62816 11.3604 9.62816H9.02613C8.67219 9.62816 8.3941 9.91217 8.3941 10.2736C8.3941 10.6265 8.67219 10.9191 9.02613 10.9191Z"/>
</clipPath><linearGradient id="paint0_linear_4_5508" x1="15.5115" y1="3.05176e-05" x2="7.75515" y2="11.862" gradientUnits="userSpaceOnUse">
<stop stop-color="#E86B35"/>
<stop offset="1" stop-color="#E86B35"/>
</linearGradient>
<linearGradient id="paint1_linear_4_5508" x1="18.898" y1="5.09781" x2="8.1385" y2="18.4237" gradientUnits="userSpaceOnUse">
<stop stop-color="white" stop-opacity="0.25"/>
<stop offset="1" stop-color="white" stop-opacity="0"/>
</linearGradient>
<linearGradient id="paint2_linear_4_5508" x1="8.64922" y1="9.86128" x2="12.6288" y2="10.2229" gradientUnits="userSpaceOnUse">
<stop stop-color="white"/>
<stop offset="1" stop-color="white" stop-opacity="0.2"/>
</linearGradient>
<linearGradient id="paint3_linear_4_5508" x1="11.6048" y1="10.0612" x2="8.54996" y2="10.1082" gradientUnits="userSpaceOnUse">
<stop stop-color="white"/>
<stop offset="1" stop-color="white" stop-opacity="0"/>
</linearGradient>
</defs>
</svg>
