<svg width="24" height="20" viewBox="0 0 24 20" fill="none" xmlns="http://www.w3.org/2000/svg">
<path d="M9.46471 2.92752C11.2306 3.40069 12.3112 5.17747 11.9139 6.95549L11.8744 7.10264L11.8749 7.10478L11.9305 7.11969C12.7632 7.34282 13.4761 8.17598 13.3946 9.715L12.8073 13.9333C12.4668 16.694 10.6799 17.3779 8.67092 16.8397L3.20834 15.376C1.19359 14.8361 -0.149208 13.6732 1.07277 10.789L2.67889 6.84372C3.34231 5.41594 4.39455 5.10072 5.23883 5.32666L5.29072 5.34057C5.29521 5.28907 5.3088 5.23837 5.33065 5.19153C5.87545 3.45322 7.69902 2.45474 9.46471 2.92752ZM9.20924 3.77909C7.94148 3.43954 6.63892 4.18799 6.30035 5.45136C6.29586 5.50287 6.28228 5.55353 6.26041 5.6004L10.8806 6.83838C10.875 6.78601 10.8793 6.73278 10.8923 6.68176C11.2308 5.41828 10.4771 4.1188 9.20924 3.77909Z" fill="url(#paint0_linear_5_354)"/>
<g opacity="0.5" filter="url(#filter0_f_5_354)">
<path d="M5.93317 9.57737C6.33136 8.54397 7.44499 7.97743 8.51472 8.26406C9.58446 8.55069 10.2656 9.59815 10.0938 10.6922L9.84661 12.2655C9.63129 13.6361 8.27544 14.5179 6.93524 14.1588C5.59505 13.7996 4.8617 12.3581 5.36057 11.0634L5.93317 9.57737Z" fill="#E86B35"/>
</g>
<foreignObject x="5.32442" y="-1.32179" width="14.7125" height="15.4103"><div xmlns="http://www.w3.org/1999/xhtml" style="backdrop-filter:blur(1.58px);clip-path:url(#bgblur_0_5_354_clip_path);height:100%;width:100%"></div></foreignObject><g filter="url(#filter1_d_5_354)" data-figma-bg-blur-radius="3.16215">
<path d="M11.318 9.45894C11.7051 9.35543 12.1055 9.59434 12.2122 9.99276C12.3187 10.391 12.0916 10.7983 11.7047 10.9022C11.3176 11.0059 10.9165 10.7669 10.8096 10.3686C10.7028 9.97006 10.9308 9.5627 11.318 9.45894ZM15.9099 8.22854C16.2971 8.12482 16.6974 8.36383 16.8041 8.76236C16.9107 9.16079 16.6837 9.56802 16.2966 9.67177C15.9095 9.7755 15.5093 9.53631 15.4024 9.13795C15.2956 8.73941 15.5227 8.33229 15.9099 8.22854ZM11.5326 1.98162C13.6586 1.41197 15.8542 2.61414 16.5102 4.7071L16.5617 4.89953C16.5807 4.96031 16.8838 6.21942 16.8745 6.28573L15.7341 6.59131C15.696 6.53723 15.2973 5.09767 15.2801 5.03669C14.8724 3.51566 13.3046 2.61388 11.7783 3.02286C10.2522 3.43203 9.34601 4.99663 9.75342 6.51757C9.77971 6.57391 10.1661 8.01591 10.1725 8.08154L9.00469 8.39445C8.97794 8.33636 8.59103 6.89246 8.58563 6.83048C8.10731 4.69006 9.40694 2.55143 11.5326 1.98162Z" fill="url(#paint1_linear_5_354)"/>
</g>
<foreignObject x="1.86683" y="-0.237853" width="25.8796" height="24.7275"><div xmlns="http://www.w3.org/1999/xhtml" style="backdrop-filter:blur(2.53px);clip-path:url(#bgblur_1_5_354_clip_path);height:100%;width:100%"></div></foreignObject><g data-figma-bg-blur-radius="5.05944">
<mask id="path-4-outside-1_5_354" maskUnits="userSpaceOnUse" x="4.5692" y="3.25215" width="19.0783" height="17.6641" fill="black">
<rect fill="white" x="4.5692" y="3.25215" width="19.0783" height="17.6641"/>
<path d="M16.9692 5.10595C17.9718 4.8375 19.2163 5.27757 20.0577 6.93131L21.9848 11.6823C23.2919 14.7659 21.8398 16.5548 19.421 17.2029L12.8444 18.9651C10.4188 19.615 8.31923 19.2107 7.85719 15.4678L7.15726 10.388C6.98939 8.49965 7.8962 7.53729 8.91262 7.26472L16.9692 5.10595ZM11.339 9.4454C10.9518 9.54916 10.7238 9.95652 10.8306 10.3551C10.9374 10.7535 11.3385 10.9924 11.7257 10.8886C12.1127 10.7848 12.3399 10.3776 12.2332 9.97922C12.1265 9.58077 11.7261 9.34183 11.339 9.4454ZM15.9309 8.215C15.5437 8.31878 15.3166 8.72589 15.4234 9.12441C15.5302 9.52294 15.9304 9.76195 16.3176 9.65823C16.7048 9.55448 16.9319 9.14736 16.8251 8.74882C16.7184 8.35028 16.3181 8.11125 15.9309 8.215Z"/>
</mask>
<path d="M16.9692 5.10595C17.9718 4.8375 19.2163 5.27757 20.0577 6.93131L21.9848 11.6823C23.2919 14.7659 21.8398 16.5548 19.421 17.2029L12.8444 18.9651C10.4188 19.615 8.31923 19.2107 7.85719 15.4678L7.15726 10.388C6.98939 8.49965 7.8962 7.53729 8.91262 7.26472L16.9692 5.10595ZM11.339 9.4454C10.9518 9.54916 10.7238 9.95652 10.8306 10.3551C10.9374 10.7535 11.3385 10.9924 11.7257 10.8886C12.1127 10.7848 12.3399 10.3776 12.2332 9.97922C12.1265 9.58077 11.7261 9.34183 11.339 9.4454ZM15.9309 8.215C15.5437 8.31878 15.3166 8.72589 15.4234 9.12441C15.5302 9.52294 15.9304 9.76195 16.3176 9.65823C16.7048 9.55448 16.9319 9.14736 16.8251 8.74882C16.7184 8.35028 16.3181 8.11125 15.9309 8.215Z" fill="#E86B35" fill-opacity="0.35"/>
<path d="M16.9692 5.10595L16.9147 4.90232L16.9147 4.90233L16.9692 5.10595ZM20.0577 6.93131L20.253 6.85207C20.2508 6.84652 20.2483 6.84106 20.2455 6.83572L20.0577 6.93131ZM21.9848 11.6823L21.7894 11.7616L21.7907 11.7646L21.9848 11.6823ZM12.8444 18.9651L12.899 19.1687L12.899 19.1687L12.8444 18.9651ZM7.85719 15.4678L8.06644 15.442L8.06603 15.439L7.85719 15.4678ZM7.15726 10.388L6.94703 10.4066L6.94842 10.4167L7.15726 10.388ZM8.91262 7.26472L8.85806 7.06109L8.85802 7.0611L8.91262 7.26472ZM11.339 9.4454L11.2845 9.24176L11.2844 9.24178L11.339 9.4454ZM10.8306 10.3551L10.6269 10.4096L10.6269 10.4097L10.8306 10.3551ZM11.7257 10.8886L11.7803 11.0923L11.7804 11.0922L11.7257 10.8886ZM12.2332 9.97922L12.4369 9.9247L12.4368 9.92466L12.2332 9.97922ZM15.9309 8.215L15.8764 8.01138L15.8763 8.01138L15.9309 8.215ZM15.4234 9.12441L15.2198 9.17897L15.2198 9.17898L15.4234 9.12441ZM16.3176 9.65823L16.3722 9.86186L16.3722 9.86186L16.3176 9.65823ZM16.8251 8.74882L17.0288 8.69426L17.0288 8.69426L16.8251 8.74882ZM16.9692 5.10595L17.0238 5.30959C17.9091 5.07251 19.0629 5.44099 19.8698 7.0269L20.0577 6.93131L20.2455 6.83572C19.3697 5.11414 18.0344 4.60249 16.9147 4.90232L16.9692 5.10595ZM20.0577 6.93131L19.8623 7.01055L21.7895 11.7615L21.9848 11.6823L22.1802 11.6031L20.253 6.85207L20.0577 6.93131ZM21.9848 11.6823L21.7907 11.7646C22.4277 13.2675 22.3769 14.4144 21.9153 15.2544C21.4508 16.1 20.5435 16.6839 19.3664 16.9993L19.421 17.2029L19.4756 17.4065C20.7173 17.0738 21.7455 16.4392 22.2849 15.4574C22.8273 14.4701 22.8489 13.1808 22.1789 11.6L21.9848 11.6823ZM19.421 17.2029L19.3664 16.9993L12.7899 18.7615L12.8444 18.9651L12.899 19.1687L19.4756 17.4065L19.421 17.2029ZM12.8444 18.9651L12.7899 18.7615C11.5925 19.0823 10.5288 19.1265 9.71612 18.6791C8.91429 18.2376 8.29336 17.2804 8.06642 15.442L7.85719 15.4678L7.64797 15.4936C7.88307 17.3981 8.54291 18.5145 9.51278 19.0484C10.4717 19.5764 11.6707 19.4978 12.899 19.1687L12.8444 18.9651ZM7.85719 15.4678L8.06603 15.439L7.3661 10.3592L7.15726 10.388L6.94842 10.4167L7.64836 15.4966L7.85719 15.4678ZM7.15726 10.388L7.36724 10.3693C7.28658 9.46198 7.46557 8.79882 7.76745 8.33552C8.06929 7.8723 8.50448 7.59243 8.96723 7.46833L8.91262 7.26472L8.85802 7.0611C8.30434 7.20958 7.77791 7.54717 7.41421 8.10535C7.05055 8.66345 6.86007 9.42563 6.94728 10.4066L7.15726 10.388ZM8.91262 7.26472L8.96719 7.46834L17.0238 5.30958L16.9692 5.10595L16.9147 4.90233L8.85806 7.06109L8.91262 7.26472ZM11.339 9.4454L11.2844 9.24178C10.7795 9.37707 10.4914 9.90393 10.6269 10.4096L10.8306 10.3551L11.0342 10.3005C10.9561 10.0091 11.124 9.72125 11.3936 9.64903L11.339 9.4454ZM10.8306 10.3551L10.6269 10.4097C10.7625 10.9152 11.2754 11.2275 11.7803 11.0923L11.7257 10.8886L11.6712 10.685C11.4017 10.7572 11.1123 10.5919 11.0342 10.3005L10.8306 10.3551ZM11.7257 10.8886L11.7804 11.0922C12.2853 10.9567 12.5721 10.4299 12.4369 9.9247L12.2332 9.97922L12.0296 10.0338C12.1077 10.3253 11.9402 10.6128 11.6711 10.685L11.7257 10.8886ZM12.2332 9.97922L12.4368 9.92466C12.3014 9.41934 11.7896 9.10664 11.2845 9.24176L11.339 9.4454L11.3935 9.64905C11.6627 9.57703 11.9515 9.74221 12.0296 10.0338L12.2332 9.97922ZM15.9309 8.215L15.8763 8.01138C15.3711 8.14679 15.0844 8.67364 15.2198 9.17897L15.4234 9.12441L15.627 9.06985C15.5489 8.77813 15.7163 8.49077 15.9855 8.41863L15.9309 8.215ZM15.4234 9.12441L15.2198 9.17898C15.3552 9.6843 15.867 9.9972 16.3722 9.86186L16.3176 9.65823L16.2631 9.4546C15.9939 9.52671 15.7052 9.36157 15.627 9.06985L15.4234 9.12441ZM16.3176 9.65823L16.3722 9.86186C16.8775 9.72648 17.1642 9.19959 17.0288 8.69426L16.8251 8.74882L16.6215 8.80338C16.6997 9.09513 16.5322 9.38248 16.2631 9.45461L16.3176 9.65823ZM16.8251 8.74882L17.0288 8.69426C16.8934 8.18893 16.3816 7.87599 15.8764 8.01138L15.9309 8.215L15.9855 8.41863C16.2547 8.34651 16.5433 8.51163 16.6215 8.80338L16.8251 8.74882Z" fill="url(#paint2_linear_5_354)" mask="url(#path-4-outside-1_5_354)"/>
</g>
<defs>
<filter id="filter0_f_5_354" x="0.987169" y="3.97369" width="13.3491" height="14.4816" filterUnits="userSpaceOnUse" color-interpolation-filters="sRGB">
<feFlood flood-opacity="0" result="BackgroundImageFix"/>
<feBlend mode="normal" in="SourceGraphic" in2="BackgroundImageFix" result="shape"/>
<feGaussianBlur stdDeviation="2.1081" result="effect1_foregroundBlur_5_354"/>
</filter>
<filter id="filter1_d_5_354" x="5.32442" y="-1.32179" width="14.7125" height="15.4103" filterUnits="userSpaceOnUse" color-interpolation-filters="sRGB">
<feFlood flood-opacity="0" result="BackgroundImageFix"/>
<feColorMatrix in="SourceAlpha" type="matrix" values="0 0 0 0 0 0 0 0 0 0 0 0 0 0 0 0 0 0 127 0" result="hardAlpha"/>
<feOffset dx="1.05405" dy="1.05405"/>
<feGaussianBlur stdDeviation="1.05405"/>
<feColorMatrix type="matrix" values="0 0 0 0 0.909804 0 0 0 0 0.419608 0 0 0 0 0.207843 0 0 0 0.5 0"/>
<feBlend mode="normal" in2="BackgroundImageFix" result="effect1_dropShadow_5_354"/>
<feBlend mode="normal" in="SourceGraphic" in2="effect1_dropShadow_5_354" result="shape"/>
</filter>
<clipPath id="bgblur_0_5_354_clip_path" transform="translate(-5.32442 1.32179)"><path d="M11.318 9.45894C11.7051 9.35543 12.1055 9.59434 12.2122 9.99276C12.3187 10.391 12.0916 10.7983 11.7047 10.9022C11.3176 11.0059 10.9165 10.7669 10.8096 10.3686C10.7028 9.97006 10.9308 9.5627 11.318 9.45894ZM15.9099 8.22854C16.2971 8.12482 16.6974 8.36383 16.8041 8.76236C16.9107 9.16079 16.6837 9.56802 16.2966 9.67177C15.9095 9.7755 15.5093 9.53631 15.4024 9.13795C15.2956 8.73941 15.5227 8.33229 15.9099 8.22854ZM11.5326 1.98162C13.6586 1.41197 15.8542 2.61414 16.5102 4.7071L16.5617 4.89953C16.5807 4.96031 16.8838 6.21942 16.8745 6.28573L15.7341 6.59131C15.696 6.53723 15.2973 5.09767 15.2801 5.03669C14.8724 3.51566 13.3046 2.61388 11.7783 3.02286C10.2522 3.43203 9.34601 4.99663 9.75342 6.51757C9.77971 6.57391 10.1661 8.01591 10.1725 8.08154L9.00469 8.39445C8.97794 8.33636 8.59103 6.89246 8.58563 6.83048C8.10731 4.69006 9.40694 2.55143 11.5326 1.98162Z"/>
</clipPath><clipPath id="bgblur_1_5_354_clip_path" transform="translate(-1.86683 0.237853)"><path d="M16.9692 5.10595C17.9718 4.8375 19.2163 5.27757 20.0577 6.93131L21.9848 11.6823C23.2919 14.7659 21.8398 16.5548 19.421 17.2029L12.8444 18.9651C10.4188 19.615 8.31923 19.2107 7.85719 15.4678L7.15726 10.388C6.98939 8.49965 7.8962 7.53729 8.91262 7.26472L16.9692 5.10595ZM11.339 9.4454C10.9518 9.54916 10.7238 9.95652 10.8306 10.3551C10.9374 10.7535 11.3385 10.9924 11.7257 10.8886C12.1127 10.7848 12.3399 10.3776 12.2332 9.97922C12.1265 9.58077 11.7261 9.34183 11.339 9.4454ZM15.9309 8.215C15.5437 8.31878 15.3166 8.72589 15.4234 9.12441C15.5302 9.52294 15.9304 9.76195 16.3176 9.65823C16.7048 9.55448 16.9319 9.14736 16.8251 8.74882C16.7184 8.35028 16.3181 8.11125 15.9309 8.215Z"/>
</clipPath><linearGradient id="paint0_linear_5_354" x1="15.4403" y1="4.52868" x2="-1.40104" y2="11.0494" gradientUnits="userSpaceOnUse">
<stop stop-color="#E86B35"/>
<stop offset="1" stop-color="#E86B35"/>
</linearGradient>
<linearGradient id="paint1_linear_5_354" x1="18.0198" y1="2.39752" x2="6.83267" y2="5.58253" gradientUnits="userSpaceOnUse">
<stop stop-color="white"/>
<stop offset="1" stop-color="white" stop-opacity="0.2"/>
</linearGradient>
<linearGradient id="paint2_linear_5_354" x1="8.43846" y1="8.87763" x2="18.4959" y2="17.6406" gradientUnits="userSpaceOnUse">
<stop stop-color="white" stop-opacity="0.25"/>
<stop offset="1" stop-color="white" stop-opacity="0"/>
</linearGradient>
</defs>
</svg>
