<svg width="476" height="476" viewBox="0 0 476 476" fill="none" xmlns="http://www.w3.org/2000/svg">
<g clip-path="url(#clip0_6_3123)">
<rect x="-1.79769" y="2.93478" width="368.282" height="368.282" rx="38.1261" transform="matrix(-0.972327 0.233624 0.233624 0.972327 350.818 34.5012)" fill="url(#paint0_linear_6_3123)" stroke="white" stroke-width="4.86717"/>
<path d="M328.714 321.378C327.229 309.469 329.042 304.444 332.608 304.025C347.197 302.342 391.126 378.103 358.243 376.807C338.833 378.468 331.449 368.275 331.177 361.669C330.906 355.064 328.714 321.378 328.714 321.378Z" fill="#FF6631"/>
<path d="M331.9 304.181C331.9 304.181 338.12 300.081 356.197 327.308C374.274 354.535 378.046 380.215 354.067 377.006C354.067 377.006 373.042 350.823 331.9 304.181Z" fill="#CD5116"/>
<path d="M105.687 97.0711C105.687 97.0711 110.652 54.6638 164.585 50.0996C164.585 50.0996 187.888 46.5504 226.452 49.9925C265.006 53.4331 353.727 73.072 353.727 73.072C353.727 73.072 389.695 87.0083 398.94 100.314C408.184 113.619 417.598 131.493 402.954 160.525C388.31 189.558 327.701 247.174 286.168 262.36C244.634 277.546 234.801 287.8 181.842 237.946C128.873 188.09 99.9983 118.443 105.687 97.0711Z" fill="#FD6534"/>
<path d="M172.23 225.152C116.045 171.799 93.8571 111.459 114.009 77.7233C118.01 71.0249 125.222 62.7918 139.231 56.1621C147.298 53.6673 159.887 48.0127 176.158 47.0615C200.718 45.6279 296.059 56.5561 371.402 77.3772C405.816 86.8883 408.742 109.968 411.048 120.106C416.091 142.197 403.786 162.057 398.764 169.296C400.604 163.694 409.26 119.811 386.096 112.019C351.355 100.327 346.099 99.6112 289.011 89.2169C194.696 71.8629 160.002 71.2392 148.123 95.7893C134.541 123.861 136.492 185.56 172.229 225.161L172.23 225.152Z" fill="#D04E1D"/>
<path d="M355.035 139.459L347.093 189.12C347.093 189.12 343.571 207.357 312.867 207.897C282.162 208.446 221.747 205.151 173.174 182.832C173.174 182.832 152.045 172.782 156.522 158.038L164.231 108.945C164.231 108.945 163.692 80.9661 262.471 96.4605C361.25 111.955 355.035 139.459 355.035 139.459Z" fill="black"/>
<path d="M234.943 62.0316C234.943 62.0316 213.697 37.3779 184.072 25.0852C184.072 25.0852 165.812 38.4141 158.269 22.6082C150.966 -2.8446 186.836 -4.38111 186.582 18.398C184.848 19.7618 246.685 47.6827 243.107 66.7492C238.468 68.0772 238.677 66.3994 234.937 62.0409L234.943 62.0316Z" fill="black"/>
<path d="M319.235 72.8466C324.986 70.4319 329.58 68.397 336.671 66.4574C356.059 61.1651 373.469 60.4661 386.822 61.1769C386.822 61.1769 391.872 79.6876 407.866 74.2306C423.865 68.7807 425.378 52.4526 408.344 43.4238C396.63 38.3103 387.558 52.6096 387.558 52.6096C387.558 52.6096 349.274 53.6552 319.886 64.3411C318.82 64.471 307.933 65.8849 306.07 71.4479C305.833 72.1718 305.182 74.0948 306.156 75.6256C307.151 77.1849 309.243 77.5296 309.808 77.4257C314.119 76.5923 318.258 73.3563 319.23 72.8395L319.235 72.8466Z" fill="black"/>
<path d="M241.88 306.933C247.385 246.071 173.412 366.335 214.254 363.333C233.71 364.336 240.739 353.899 240.786 347.286C240.832 340.672 241.88 306.933 241.88 306.933Z" fill="#FF6631"/>
<path d="M221.812 302.981C221.812 302.981 195.485 363.343 240.152 350.687C240.152 350.687 236.391 366.1 209.884 363.745C197.025 362.602 198.533 331.841 221.812 302.981Z" fill="#CF4E23"/>
<path d="M245.168 191.019L240.07 190.204L239.255 195.301L244.353 196.116L245.168 191.019Z" fill="url(#paint1_radial_6_3123)"/>
<path d="M239.168 188.019L234.07 187.204L233.255 192.301L238.353 193.116L239.168 188.019Z" fill="url(#paint2_radial_6_3123)"/>
<path d="M251.168 192.019L246.07 191.204L245.255 196.301L250.353 197.116L251.168 192.019Z" fill="url(#paint3_radial_6_3123)"/>
<path d="M260.748 191.77L255.65 190.954L254.835 196.052L259.932 196.867L260.748 191.77Z" fill="url(#paint4_radial_6_3123)"/>
<path d="M209.918 169.695L204.82 168.88L204.005 173.977L209.103 174.792L209.918 169.695Z" fill="url(#paint5_radial_6_3123)"/>
<path d="M229.499 172.827L224.402 172.011L223.587 177.109L228.684 177.924L229.499 172.827Z" fill="url(#paint6_radial_6_3123)"/>
<path d="M210.958 163.191L205.861 162.376L205.045 167.473L210.143 168.288L210.958 163.191Z" fill="url(#paint7_radial_6_3123)"/>
<path d="M217.792 164.284L212.695 163.469L211.879 168.566L216.977 169.381L217.792 164.284Z" fill="url(#paint8_radial_6_3123)"/>
<path d="M224.001 165.277L218.903 164.461L218.088 169.559L223.185 170.374L224.001 165.277Z" fill="url(#paint9_radial_6_3123)"/>
<path d="M230.539 166.322L225.442 165.507L224.627 170.604L229.724 171.42L230.539 166.322Z" fill="url(#paint10_radial_6_3123)"/>
<path d="M212.048 156.374L206.951 155.559L206.136 160.656L211.233 161.471L212.048 156.374Z" fill="url(#paint11_radial_6_3123)"/>
<path d="M218.882 157.467L213.785 156.652L212.969 161.749L218.067 162.564L218.882 157.467Z" fill="url(#paint12_radial_6_3123)"/>
<path d="M225.091 158.46L219.994 157.645L219.178 162.742L224.276 163.557L225.091 158.46Z" fill="url(#paint13_radial_6_3123)"/>
<path d="M231.629 159.506L226.532 158.69L225.717 163.788L230.814 164.603L231.629 159.506Z" fill="url(#paint14_radial_6_3123)"/>
<path d="M213.076 149.948L207.978 149.133L207.163 154.23L212.26 155.046L213.076 149.948Z" fill="url(#paint15_radial_6_3123)"/>
<path d="M219.91 151.041L214.812 150.226L213.997 155.323L219.094 156.139L219.91 151.041Z" fill="url(#paint16_radial_6_3123)"/>
<path d="M226.118 152.034L221.021 151.219L220.206 156.316L225.303 157.131L226.118 152.034Z" fill="url(#paint17_radial_6_3123)"/>
<path d="M232.657 153.08L227.56 152.265L226.745 157.362L231.842 158.177L232.657 153.08Z" fill="url(#paint18_radial_6_3123)"/>
<path d="M214.105 143.514L209.007 142.699L208.192 147.796L213.29 148.611L214.105 143.514Z" fill="url(#paint19_radial_6_3123)"/>
<path d="M220.939 144.607L215.841 143.791L215.026 148.889L220.123 149.704L220.939 144.607Z" fill="url(#paint20_radial_6_3123)"/>
<path d="M227.147 145.6L222.05 144.784L221.235 149.882L226.332 150.697L227.147 145.6Z" fill="url(#paint21_radial_6_3123)"/>
<path d="M233.686 146.645L228.589 145.83L227.774 150.927L232.871 151.743L233.686 146.645Z" fill="url(#paint22_radial_6_3123)"/>
<path d="M215.043 137.644L209.946 136.829L209.131 141.926L214.228 142.741L215.043 137.644Z" fill="url(#paint23_radial_6_3123)"/>
<path d="M221.877 138.737L216.78 137.922L215.965 143.019L221.062 143.834L221.877 138.737Z" fill="url(#paint24_radial_6_3123)"/>
<path d="M228.086 139.73L222.989 138.914L222.174 144.012L227.271 144.827L228.086 139.73Z" fill="url(#paint25_radial_6_3123)"/>
<path d="M234.625 140.775L229.528 139.96L228.712 145.057L233.81 145.873L234.625 140.775Z" fill="url(#paint26_radial_6_3123)"/>
<path d="M216.125 130.879L211.028 130.064L210.213 135.161L215.31 135.977L216.125 130.879Z" fill="url(#paint27_radial_6_3123)"/>
<path d="M222.959 131.972L217.862 131.157L217.047 136.254L222.144 137.069L222.959 131.972Z" fill="url(#paint28_radial_6_3123)"/>
<path d="M229.168 132.965L224.071 132.15L223.256 137.247L228.353 138.062L229.168 132.965Z" fill="url(#paint29_radial_6_3123)"/>
<path d="M235.707 134.011L230.609 133.196L229.794 138.293L234.891 139.108L235.707 134.011Z" fill="url(#paint30_radial_6_3123)"/>
<path d="M217.118 124.671L212.021 123.855L211.206 128.953L216.303 129.768L217.118 124.671Z" fill="url(#paint31_radial_6_3123)"/>
<path d="M223.952 125.763L218.855 124.948L218.04 130.046L223.137 130.861L223.952 125.763Z" fill="url(#paint32_radial_6_3123)"/>
<path d="M230.161 126.756L225.063 125.941L224.248 131.039L229.346 131.854L230.161 126.756Z" fill="url(#paint33_radial_6_3123)"/>
<path d="M236.7 127.802L231.602 126.987L230.787 132.084L235.884 132.899L236.7 127.802Z" fill="url(#paint34_radial_6_3123)"/>
<path d="M218.111 118.462L213.014 117.647L212.199 122.744L217.296 123.559L218.111 118.462Z" fill="url(#paint35_radial_6_3123)"/>
<path d="M224.945 119.555L219.848 118.74L219.032 123.837L224.13 124.652L224.945 119.555Z" fill="url(#paint36_radial_6_3123)"/>
<path d="M231.154 120.548L226.057 119.733L225.241 124.83L230.339 125.645L231.154 120.548Z" fill="url(#paint37_radial_6_3123)"/>
<path d="M237.692 121.593L232.595 120.778L231.78 125.876L236.877 126.691L237.692 121.593Z" fill="url(#paint38_radial_6_3123)"/>
<path d="M226.009 112.903L220.911 112.088L220.096 117.185L225.194 118L226.009 112.903Z" fill="url(#paint39_radial_6_3123)"/>
<path d="M232.218 113.896L227.12 113.081L226.305 118.178L231.402 118.993L232.218 113.896Z" fill="url(#paint40_radial_6_3123)"/>
<path fill-rule="evenodd" clip-rule="evenodd" d="M386.235 397.302C338.201 437.409 222.821 412.518 276.605 298.715L164.367 402.034L106.287 362.707L141.47 283.207L53.7265 355.5L45.2265 320L35.7265 281.5L166.532 186.515L222.571 226.048L189.968 297.963L314.059 183.778L377.522 227.829C328.478 301.752 279.776 413.053 413.334 303.18L428.226 360.5L386.235 397.302Z" fill="#2A2A24" stroke="#2A2A24" stroke-width="0.762221"/>
<path d="M276.091 180.473L270.994 179.658L270.178 184.755L275.276 185.57L276.091 180.473Z" fill="url(#paint41_radial_6_3123)"/>
<path d="M295.672 183.605L290.575 182.79L289.76 187.887L294.857 188.702L295.672 183.605Z" fill="url(#paint42_radial_6_3123)"/>
<path d="M277.131 173.969L272.034 173.154L271.219 178.251L276.316 179.066L277.131 173.969Z" fill="url(#paint43_radial_6_3123)"/>
<path d="M283.965 175.062L278.868 174.247L278.052 179.344L283.15 180.159L283.965 175.062Z" fill="url(#paint44_radial_6_3123)"/>
<path d="M290.174 176.055L285.076 175.24L284.261 180.337L289.358 181.152L290.174 176.055Z" fill="url(#paint45_radial_6_3123)"/>
<path d="M296.712 177.101L291.615 176.285L290.8 181.383L295.897 182.198L296.712 177.101Z" fill="url(#paint46_radial_6_3123)"/>
<path d="M278.221 167.152L273.124 166.337L272.309 171.434L277.406 172.25L278.221 167.152Z" fill="url(#paint47_radial_6_3123)"/>
<path d="M285.055 168.245L279.958 167.43L279.143 172.527L284.24 173.342L285.055 168.245Z" fill="url(#paint48_radial_6_3123)"/>
<path d="M291.264 169.238L286.167 168.423L285.351 173.52L290.449 174.335L291.264 169.238Z" fill="url(#paint49_radial_6_3123)"/>
<path d="M297.803 170.284L292.705 169.469L291.89 174.566L296.987 175.381L297.803 170.284Z" fill="url(#paint50_radial_6_3123)"/>
<path d="M279.249 160.727L274.151 159.911L273.336 165.009L278.433 165.824L279.249 160.727Z" fill="url(#paint51_radial_6_3123)"/>
<path d="M286.083 161.819L280.985 161.004L280.17 166.102L285.267 166.917L286.083 161.819Z" fill="url(#paint52_radial_6_3123)"/>
<path d="M292.291 162.812L287.194 161.997L286.379 167.094L291.476 167.91L292.291 162.812Z" fill="url(#paint53_radial_6_3123)"/>
<path d="M298.83 163.858L293.733 163.043L292.918 168.14L298.015 168.955L298.83 163.858Z" fill="url(#paint54_radial_6_3123)"/>
<path d="M280.278 154.292L275.18 153.477L274.365 158.574L279.463 159.389L280.278 154.292Z" fill="url(#paint55_radial_6_3123)"/>
<path d="M287.112 155.385L282.014 154.57L281.199 159.667L286.296 160.482L287.112 155.385Z" fill="url(#paint56_radial_6_3123)"/>
<path d="M293.321 156.378L288.223 155.563L287.408 160.66L292.505 161.475L293.321 156.378Z" fill="url(#paint57_radial_6_3123)"/>
<path d="M299.859 157.423L294.762 156.608L293.947 161.706L299.044 162.521L299.859 157.423Z" fill="url(#paint58_radial_6_3123)"/>
<path d="M281.216 148.422L276.119 147.607L275.304 152.704L280.401 153.519L281.216 148.422Z" fill="url(#paint59_radial_6_3123)"/>
<path d="M288.05 149.515L282.953 148.7L282.138 153.797L287.235 154.612L288.05 149.515Z" fill="url(#paint60_radial_6_3123)"/>
<path d="M294.259 150.508L289.162 149.693L288.347 154.79L293.444 155.605L294.259 150.508Z" fill="url(#paint61_radial_6_3123)"/>
<path d="M300.798 151.554L295.701 150.738L294.886 155.836L299.983 156.651L300.798 151.554Z" fill="url(#paint62_radial_6_3123)"/>
<path d="M282.298 141.657L277.201 140.842L276.386 145.939L281.483 146.755L282.298 141.657Z" fill="url(#paint63_radial_6_3123)"/>
<path d="M289.132 142.75L284.035 141.935L283.22 147.032L288.317 147.848L289.132 142.75Z" fill="url(#paint64_radial_6_3123)"/>
<path d="M295.341 143.743L290.244 142.928L289.428 148.025L294.526 148.841L295.341 143.743Z" fill="url(#paint65_radial_6_3123)"/>
<path d="M301.88 144.789L296.782 143.974L295.967 149.071L301.065 149.886L301.88 144.789Z" fill="url(#paint66_radial_6_3123)"/>
<path d="M283.291 135.449L278.194 134.634L277.379 139.731L282.476 140.546L283.291 135.449Z" fill="url(#paint67_radial_6_3123)"/>
<path d="M290.125 136.542L285.028 135.726L284.213 140.824L289.31 141.639L290.125 136.542Z" fill="url(#paint68_radial_6_3123)"/>
<path d="M296.334 137.535L291.237 136.719L290.421 141.817L295.519 142.632L296.334 137.535Z" fill="url(#paint69_radial_6_3123)"/>
<path d="M302.873 138.58L297.776 137.765L296.96 142.862L302.058 143.678L302.873 138.58Z" fill="url(#paint70_radial_6_3123)"/>
<path d="M284.284 129.24L279.187 128.425L278.372 133.522L283.469 134.337L284.284 129.24Z" fill="url(#paint71_radial_6_3123)"/>
<path d="M291.118 130.333L286.021 129.518L285.206 134.615L290.303 135.43L291.118 130.333Z" fill="url(#paint72_radial_6_3123)"/>
<path d="M297.327 131.326L292.229 130.511L291.414 135.608L296.512 136.423L297.327 131.326Z" fill="url(#paint73_radial_6_3123)"/>
<path d="M303.866 132.372L298.768 131.556L297.953 136.654L303.05 137.469L303.866 132.372Z" fill="url(#paint74_radial_6_3123)"/>
<path d="M292.182 123.681L287.085 122.866L286.269 127.963L291.367 128.779L292.182 123.681Z" fill="url(#paint75_radial_6_3123)"/>
<path d="M298.39 124.674L293.293 123.859L292.478 128.956L297.575 129.771L298.39 124.674Z" fill="url(#paint76_radial_6_3123)"/>
<path d="M116.497 280.007C116.497 280.007 126.281 285.918 129.539 289.629C132.797 293.341 140.722 288.943 135.01 283.114C129.297 277.286 125.089 276.809 123.322 274.543C121.554 272.277 116.497 280.007 116.497 280.007Z" fill="black"/>
<path d="M126.446 268.799C137.405 275.714 142.773 280.361 145.58 283.591C146.249 284.363 148.099 286.574 150.218 286.328C152.362 286.082 154.029 283.426 154.324 281.908C155.439 276.157 140.3 268.249 128.81 263.09L126.446 268.799Z" fill="black"/>
<path d="M130.574 257.557C143.549 262.128 150.262 265.637 153.976 268.262C154.866 268.895 157.339 270.701 159.41 270.012C170.938 259.86 145.48 254.651 131.38 251.359L130.561 257.556L130.574 257.557Z" fill="black"/>
<path d="M132.2 245.099L154.078 245.819C154.078 245.819 157.411 245.881 158.22 242.842C159.03 239.804 156.826 237.592 154.91 237.948L129.072 236.402L132.194 245.105L132.2 245.099Z" fill="black"/>
<path d="M125.459 233.411C125.459 233.411 126.164 229.301 130.792 228.274C135.419 227.247 137.888 222.293 137.467 217.167C137.228 214.308 135.533 212.497 133.549 212.199C132.042 211.978 130.736 212.955 128.858 214.618C123.064 219.771 121.308 222.929 117.567 226.043C116.115 227.247 113.82 228.909 110.484 230.339C115.478 231.365 120.465 232.385 125.459 233.411Z" fill="black"/>
<path d="M95.0508 230.846C95.0508 230.846 40.3773 233.475 80.2112 264.471C120.045 295.466 123.455 274.415 128.302 261.321C133.155 248.233 141.045 225.039 95.0508 230.846Z" fill="#FF6632"/>
<path d="M78.7628 233.484C78.7628 233.484 137.854 241.715 114.288 280.376C114.288 280.376 124.32 281.726 131.162 255.391C138.004 229.056 111.964 229.999 111.964 229.999C111.964 229.999 90.6854 229.484 78.7628 233.484Z" fill="#CF4D1B"/>
<path d="M328.589 289.359C328.589 289.359 317.494 292.101 313.274 294.673C309.055 297.245 302.801 290.699 309.984 286.83C317.167 282.961 321.324 283.755 323.693 282.113C326.062 280.471 328.594 289.351 328.594 289.351L328.589 289.359Z" fill="black"/>
<path d="M322.413 275.71C309.897 279.057 303.387 281.905 299.751 284.159C298.881 284.699 296.459 286.263 294.507 285.401C292.54 284.529 291.724 281.495 291.895 279.959C292.536 274.134 309.344 271.078 321.842 269.56L322.408 275.718L322.413 275.71Z" fill="black"/>
<path d="M321.799 263.743C308.052 264.266 300.605 265.62 296.274 267.016C295.236 267.349 292.334 268.348 290.561 267.076C282.569 253.959 308.423 256.535 322.862 257.587L321.806 263.748L321.799 263.743Z" fill="black"/>
<path d="M323.945 251.37L302.834 245.566C302.834 245.566 299.634 244.64 299.764 241.489C299.89 238.346 302.651 236.892 304.383 237.798L329.52 243.99L323.952 251.374L323.945 251.37Z" fill="black"/>
<path d="M333.85 242.201C333.85 242.201 334.394 238.068 330.284 235.719C326.174 233.369 325.275 227.899 327.201 223.125C328.272 220.466 330.43 219.234 332.413 219.545C333.917 219.779 334.876 221.098 336.176 223.249C340.178 229.886 340.923 233.422 343.564 237.507C344.592 239.085 346.29 241.354 349.059 243.715C343.989 243.211 338.92 242.706 333.85 242.201Z" fill="black"/>
<path d="M339.789 237.965C339.789 237.965 393.618 228.044 361.913 267.313C330.207 306.581 322.083 286.859 314.367 275.222C306.661 263.584 293.674 242.804 339.789 237.965Z" fill="#FF6632"/>
<path d="M356.251 236.802C356.251 236.802 300.6 258.306 332.366 290.569C332.366 290.569 322.906 294.175 310.236 270.091C297.566 246.008 323.132 240.982 323.132 240.982C323.132 240.982 343.732 235.622 356.251 236.794L356.251 236.802Z" fill="#CF4D1B"/>
<circle cx="5.71587" cy="5.71587" r="5.71587" transform="matrix(-0.945646 0.325199 0.325199 0.945646 155.037 193)" fill="#FFCE09"/>
<circle cx="349.955" cy="223.395" r="5.71587" transform="rotate(34.1691 349.955 223.395)" fill="#FFCE09"/>
<circle cx="357.166" cy="216.939" r="5.71587" transform="rotate(34.1691 357.166 216.939)" fill="#FFCE09"/>
<circle cx="365.166" cy="210.939" r="5.71587" transform="rotate(34.1691 365.166 210.939)" fill="#FFCE09"/>
<circle cx="303.245" cy="244.825" r="5.71587" transform="rotate(55.1469 303.245 244.825)" fill="#FFCE09"/>
<circle cx="5.71587" cy="5.71587" r="5.71587" transform="matrix(-0.766545 0.642191 0.642191 0.766545 191.794 223.997)" fill="#FFCE09"/>
<circle cx="341.339" cy="229.982" r="5.71587" transform="rotate(34.1691 341.339 229.982)" fill="#FFCE09"/>
<circle cx="5.71587" cy="5.71587" r="5.71587" transform="matrix(-0.945646 0.325199 0.325199 0.945646 161.757 200.478)" fill="#FFCE09"/>
<circle cx="292.842" cy="247.891" r="5.71587" transform="rotate(55.1469 292.842 247.891)" fill="#FFCE09"/>
<circle cx="5.71587" cy="5.71587" r="5.71587" transform="matrix(-0.766545 0.642191 0.642191 0.766545 201.031 229.682)" fill="#FFCE09"/>
<circle cx="332.419" cy="234.98" r="5.71587" transform="rotate(34.1691 332.419 234.98)" fill="#FFCE09"/>
<circle cx="5.71587" cy="5.71587" r="5.71587" transform="matrix(-0.945646 0.325199 0.325199 0.945646 169.055 207.64)" fill="#FFCE09"/>
<circle cx="282.724" cy="249.364" r="5.71587" transform="rotate(55.1469 282.724 249.364)" fill="#FFCE09"/>
<circle cx="5.71587" cy="5.71587" r="5.71587" transform="matrix(-0.766545 0.642191 0.642191 0.766545 210.409 233.755)" fill="#FFCE09"/>
<circle cx="322.553" cy="239.337" r="5.71587" transform="rotate(34.1691 322.553 239.337)" fill="#FFCE09"/>
<circle cx="5.71587" cy="5.71587" r="5.71587" transform="matrix(-0.945646 0.325199 0.325199 0.945646 177.435 214.429)" fill="#FFCE09"/>
<circle cx="271.953" cy="249.9" r="5.71587" transform="rotate(55.1469 271.953 249.9)" fill="#FFCE09"/>
<circle cx="5.71587" cy="5.71587" r="5.71587" transform="matrix(-0.766545 0.642191 0.642191 0.766545 220.663 237.095)" fill="#FFCE09"/>
<circle cx="312.384" cy="242.105" r="5.71587" transform="rotate(34.1691 312.384 242.105)" fill="#FFCE09"/>
<circle cx="5.71587" cy="5.71587" r="5.71587" transform="matrix(-0.945646 0.325199 0.325199 0.945646 186.523 219.766)" fill="#FFCE09"/>
<circle cx="261.466" cy="248.845" r="5.71587" transform="rotate(55.1469 261.466 248.845)" fill="#FFCE09"/>
<circle cx="5.71587" cy="5.71587" r="5.71587" transform="matrix(-0.766545 0.642191 0.642191 0.766545 231.06 238.825)" fill="#FFCE09"/>
<circle cx="245.273" cy="273.092" r="30.5206" transform="rotate(37.1665 245.273 273.092)" fill="#FFCE09" stroke="black" stroke-width="1.56516"/>
<path d="M252.129 266.566C252.225 266.59 252.133 267.178 251.853 268.333C251.827 268.398 251.645 268.476 251.307 268.567C250.969 268.658 250.598 268.736 250.196 268.801C249.821 268.833 249.464 268.878 249.123 268.938C248.78 268.967 248.609 268.981 248.609 268.981C248.434 269.153 248.416 269.312 248.554 269.457C248.588 269.486 248.747 269.504 249.03 269.512C249.313 269.519 249.58 269.513 249.829 269.492C250.076 269.44 250.278 269.407 250.434 269.394C250.434 269.771 250.379 270.058 250.27 270.256C250.242 270.29 250.198 270.325 250.138 270.361C250.107 270.364 250.06 270.368 249.997 270.373C249.964 270.344 249.932 270.347 249.904 270.381C249.873 270.383 249.834 270.481 249.787 270.673C249.79 270.705 249.779 270.768 249.756 270.864C249.761 270.927 249.752 271.006 249.729 271.102C249.734 271.165 249.722 271.213 249.694 271.247L249.897 271.983C249.928 272.358 249.867 272.567 249.714 272.611L246.392 272.89C246.472 273.103 246.481 273.4 246.419 273.783C246.357 274.165 246.252 274.598 246.104 275.081C245.987 275.562 245.93 275.818 245.933 275.849C245.915 276.008 245.89 276.089 245.859 276.091L248.994 275.829L249.329 275.895C249.22 276.846 249.108 277.374 248.991 277.478C248.902 277.548 248.67 277.584 248.293 277.584C248.199 277.592 248.138 277.612 248.109 277.646C248.081 277.68 248.054 277.729 248.028 277.794C247.892 278.057 247.938 278.226 248.164 278.301C248.198 278.33 248.294 278.353 248.453 278.371C248.64 278.356 248.75 278.362 248.784 278.391C248.787 278.422 248.738 278.583 248.636 278.874C248.564 279.132 248.468 279.485 248.348 279.935C248.257 280.351 248.164 280.736 248.068 281.089C248.001 281.409 247.967 281.569 247.967 281.569C247.938 281.603 247.878 281.639 247.788 281.678C247.572 281.728 247.356 281.777 247.14 281.827C246.831 281.884 246.006 281.969 244.664 282.081C244.579 282.56 244.436 283.294 244.236 284.285C244.037 285.275 243.837 286.266 243.637 287.256C243.44 288.278 243.299 289.028 243.213 289.506C242.639 289.774 242.355 289.955 242.363 290.049L241.826 291.507C241.735 291.546 241.626 291.555 241.498 291.535C240.929 291.488 240.655 291.401 240.675 291.274C240.719 291.05 240.743 290.766 240.745 290.42C240.75 290.105 240.744 289.839 240.725 289.62L240.698 289.293L240.055 290.619L239.115 290.085L237.47 290.129L239.003 282.556C237.942 282.644 236.663 282.752 235.166 282.877C235.054 283.42 234.825 284.618 234.477 286.469C234.13 288.32 233.901 289.533 233.792 290.107C233.218 290.375 232.936 290.571 232.947 290.696L232.409 292.155C232.315 292.163 232.206 292.172 232.082 292.182C231.606 292.128 231.318 292.073 231.22 292.019C231.495 291.179 231.609 290.478 231.562 289.917L231.277 289.894L231.129 290.377L230.634 291.22L229.694 290.686C229.715 290.559 229.749 290.399 229.796 290.206C229.874 290.011 229.942 289.707 230.002 289.294C230.095 288.909 230.119 288.624 230.072 288.44C230.03 288.318 229.835 288.428 229.487 288.771L228.63 291.482L227.882 291.545L229.453 283.308L227.114 283.504L224.727 283.704C224.6 283.684 224.562 283.608 224.614 283.478C224.643 283.444 224.656 283.412 224.653 283.381C224.703 283.22 224.753 283.074 224.805 282.944C224.823 282.785 224.856 282.61 224.902 282.418C224.949 282.225 225 282.08 225.054 281.981C225.075 281.853 225.224 281.762 225.503 281.708C225.778 281.622 226.15 281.559 226.618 281.52C227.083 281.45 227.361 281.395 227.452 281.356C227.483 281.353 227.514 281.351 227.546 281.348C227.751 281.174 227.786 281.029 227.651 280.915C227.581 280.827 227.311 280.802 226.844 280.841C226.407 280.878 226.033 280.909 225.721 280.935C225.744 280.839 225.778 280.679 225.822 280.456C225.819 280.425 225.83 280.361 225.853 280.265C225.876 280.168 225.902 280.103 225.931 280.07C225.928 280.038 225.958 280.02 226.02 280.015C226.049 279.981 226.096 279.977 226.161 280.003C226.192 280.001 226.237 279.981 226.297 279.945C226.36 279.939 226.404 279.904 226.43 279.839C226.427 279.808 226.423 279.761 226.418 279.699C226.41 279.605 226.404 279.527 226.398 279.465C226.43 279.462 226.441 279.414 226.433 279.321C226.454 279.193 226.465 279.13 226.465 279.13C226.348 279.234 226.236 279.212 226.129 279.064C226.09 278.973 226.112 278.861 226.195 278.728C226.224 278.694 226.268 278.659 226.328 278.623C226.385 278.555 226.428 278.504 226.456 278.471C226.602 278.333 226.679 278.122 226.686 277.839C226.681 277.776 226.88 277.713 227.283 277.648L230.605 277.369L231.068 275.022L231.099 274.83C231.174 274.604 231.234 274.379 231.278 274.156L227.207 274.497L226.825 274.435C226.965 273.481 227.079 272.968 227.168 272.898C227.287 272.825 227.534 272.773 227.908 272.742C227.94 272.739 227.994 272.64 228.072 272.445C228.147 272.219 228.12 272.08 227.99 272.028C227.956 272 227.861 271.992 227.705 272.005C227.549 272.018 227.453 271.995 227.417 271.935C227.347 271.847 227.577 270.853 228.11 268.955C228.156 268.763 228.194 268.65 228.222 268.616C228.22 268.585 228.265 268.565 228.359 268.558C228.484 268.547 228.594 268.554 228.69 268.577C228.815 268.566 228.923 268.542 229.014 268.503C229.386 268.44 230.554 268.327 232.519 268.162C233.655 262.224 234.226 259.098 234.231 258.783C234.351 258.71 234.555 258.709 234.843 258.779C235.129 258.818 235.384 258.859 235.608 258.903C235.828 258.916 236.046 258.882 236.259 258.802C236.269 258.927 236.281 259.067 236.294 259.223C236.338 259.376 236.363 259.484 236.368 259.546C236.371 259.578 236.403 259.591 236.466 259.585C237.191 259.996 237.615 260.18 237.737 260.139C237.766 260.105 237.84 259.863 237.959 259.413C238.076 258.932 238.149 258.675 238.177 258.641L239.647 258.753C238.706 264.392 238.202 267.372 238.134 267.692C238.758 267.639 239.524 267.591 240.431 267.546C241.367 267.468 241.897 267.423 242.022 267.413C242.071 267.252 242.231 266.532 242.501 265.252C242.801 263.971 243.062 262.771 243.283 261.653C243.532 260.501 243.652 259.879 243.645 259.785C243.767 259.743 244.114 259.761 244.686 259.839C245.289 259.914 245.681 259.913 245.863 259.835C245.871 259.928 245.88 260.038 245.891 260.162C245.901 260.287 245.897 260.429 245.879 260.587C245.89 260.712 245.885 260.838 245.864 260.966C245.872 261.059 245.879 261.153 245.887 261.246C245.893 261.309 245.911 261.339 245.942 261.336C246.171 261.442 246.42 261.422 246.691 261.273C246.753 261.268 246.857 261.008 247.002 260.493C247.179 259.976 247.298 259.715 247.361 259.709L249.069 259.849C248.226 264.035 247.776 266.35 247.719 266.794C247.69 266.828 247.677 266.861 247.68 266.892C247.68 266.892 247.681 266.907 247.684 266.939L249.04 266.825C249.228 266.809 249.586 266.779 250.117 266.735C250.676 266.657 251.127 266.603 251.47 266.574C251.844 266.543 252.064 266.54 252.129 266.566ZM229.924 281.054L229.986 280.672L229.144 280.743C229.144 280.743 229.057 280.829 228.883 281C228.943 280.964 229.006 280.974 229.074 281.031C229.139 281.057 229.188 281.085 229.222 281.113L229.277 281.203C229.49 281.122 229.706 281.073 229.924 281.054ZM232.084 288.271C232.073 288.146 232.351 286.395 232.916 283.018L232.542 283.05C232.49 283.557 232.441 283.906 232.394 284.099L231.826 288.575C232.029 288.747 232.115 288.646 232.084 288.271ZM231.775 269.968C231.975 269.731 232.057 269.583 232.021 269.523C232.023 269.554 231.808 269.604 231.374 269.671C231.124 269.692 230.859 269.715 230.578 269.738C230.295 269.73 230.058 269.719 229.868 269.703C229.679 269.688 229.568 269.681 229.537 269.684L229.081 269.864C229.058 269.96 228.986 270.044 228.867 270.117C228.809 270.185 228.812 270.216 228.874 270.211L229.062 270.195C230.814 270.111 231.718 270.035 231.775 269.968ZM240.536 274.982C240.665 274.28 240.777 273.737 240.87 273.352L236.846 273.689C236.927 273.902 236.936 274.2 236.874 274.582C236.843 274.962 236.753 275.393 236.605 275.877C236.489 276.358 236.416 276.615 236.387 276.649C236.369 276.808 236.36 276.887 236.36 276.887L240.197 276.566L240.536 274.982ZM241.551 287.667C241.546 287.604 241.595 287.254 241.699 286.618C241.8 285.949 241.922 285.154 242.064 284.231C242.238 283.305 242.356 282.652 242.418 282.269C242.262 282.282 242.138 282.293 242.044 282.301C242.021 282.774 241.986 283.107 241.939 283.299L241.247 287.975C241.479 288.112 241.58 288.01 241.551 287.667ZM247.284 262.731C247.323 262.445 247.308 262.274 247.241 262.217C247.142 262.162 247.025 262.266 246.89 262.529C246.867 262.625 246.729 263.233 246.477 264.354C246.226 265.474 245.969 266.533 245.707 267.528C245.445 268.524 245.251 269.027 245.126 269.038C245.194 269.472 245.06 270.865 244.723 273.218C244.648 273.821 244.405 274.862 243.995 276.342L244.556 276.295C244.803 275.112 244.959 274.345 245.023 273.994C245.272 272.842 245.495 271.567 245.692 270.168C245.736 269.945 246.267 267.466 247.284 262.731ZM261.13 254.645C262.564 254.525 263.781 254.423 264.779 254.339C262.976 263.192 262.041 267.778 261.974 268.097C261.541 270.427 261.157 272.407 260.822 274.037C260.713 274.611 260.471 275.841 260.095 277.726L258.667 285.997C258.607 286.033 258.516 286.072 258.394 286.114C258.306 286.184 258.172 286.274 257.993 286.383C257.813 286.493 257.691 286.534 257.626 286.508C257.595 286.511 257.574 286.45 257.564 286.325C257.587 286.229 257.605 286.07 257.618 285.849C257.662 285.626 257.69 285.388 257.7 285.136C257.741 284.881 257.781 284.611 257.82 284.325C257.89 284.036 257.945 283.749 257.984 283.463C258.051 283.143 258.106 282.856 258.147 282.601C258.189 282.346 258.217 282.124 258.233 281.934C258.277 281.71 258.309 281.535 258.33 281.408L258.365 281.263C258.362 281.232 258.344 281.202 258.31 281.174C258.276 281.145 258.211 281.119 258.115 281.096C258.016 281.041 257.925 281.08 257.842 281.213C257.814 281.247 257.68 281.713 257.441 282.613C257.231 283.479 257.005 284.346 256.764 285.214C256.551 286.049 256.412 286.453 256.347 286.427C256.251 286.404 256.143 286.428 256.024 286.501C255.995 286.535 255.909 286.636 255.766 286.805C255.657 287.003 255.587 287.103 255.556 287.106C255.556 287.106 255.396 287.072 255.076 287.005C254.759 286.968 254.599 286.935 254.597 286.903C254.591 286.841 254.638 286.649 254.737 286.326L253.848 286.401C253.715 286.695 253.649 286.841 253.649 286.841C253.652 286.873 253.588 286.862 253.458 286.81C253.331 286.79 253.216 286.736 253.115 286.651C252.985 286.599 252.933 286.54 252.959 286.475C252.834 286.486 252.74 286.494 252.678 286.499C254.761 276.869 255.927 271.478 256.176 270.326C256.197 270.199 256.294 269.673 256.468 268.747C256.671 267.788 256.804 267.133 256.869 266.782C256.768 266.696 256.54 266.793 256.187 267.074C255.862 267.322 255.633 267.403 255.5 267.32C255.464 267.261 255.429 267.216 255.395 267.188C255.393 267.157 255.386 267.079 255.376 266.954C255.394 266.795 255.351 266.658 255.247 266.541C255.187 266.577 255.065 266.619 254.88 266.666C254.724 266.679 254.599 266.689 254.506 266.697C254.443 266.702 254.397 266.706 254.366 266.709C254.332 266.68 254.298 266.652 254.264 266.623C254.228 266.563 254.159 266.49 254.057 266.405C253.987 266.316 253.934 266.242 253.897 266.182C253.861 266.123 253.84 266.062 253.835 265.999C253.827 265.906 253.85 265.809 253.905 265.711C253.931 265.646 253.972 265.579 254.03 265.512C254.084 265.413 254.139 265.314 254.193 265.215C254.279 265.114 254.352 265.045 254.412 265.009C254.715 264.512 255.092 263.946 255.542 263.312C256.989 261.086 258.851 258.197 261.13 254.645ZM260.182 272.582C260.231 272.421 260.32 271.974 260.447 271.241C260.574 270.508 260.673 269.824 260.746 269.19C260.847 268.522 260.898 268.188 260.898 268.188C260.84 268.255 260.811 268.273 260.808 268.242L260.609 268.683C260.531 268.878 260.197 270.32 259.605 273.008C258.622 277.394 258.134 279.633 258.142 279.727C258.145 279.758 258.138 279.869 258.123 280.058L258.684 280.011C258.871 278.865 258.973 278.212 258.991 278.054C259.002 277.802 259.164 276.924 259.478 275.422C259.82 273.885 260.055 272.939 260.182 272.582ZM261.681 266.284C261.678 266.253 262.006 264.357 262.665 260.595C262.633 260.597 262.664 260.218 262.758 259.456C262.848 258.663 262.94 257.886 263.034 257.124C263.127 256.362 263.158 255.983 263.127 255.985C262.572 259.487 262.209 261.34 262.037 261.543C261.742 263.264 261.475 264.762 261.236 266.039C261.143 266.424 261.143 266.612 261.236 266.604C261.267 266.602 261.301 266.63 261.338 266.69C261.533 266.768 261.637 266.696 261.649 266.475C261.678 266.442 261.688 266.378 261.681 266.284Z" fill="#2A2A24"/>
</g>
<defs>
<linearGradient id="paint0_linear_6_3123" x1="193.956" y1="356.398" x2="117.332" y2="12.659" gradientUnits="userSpaceOnUse">
<stop stop-color="#FFCE09"/>
<stop offset="1" stop-color="#FFE049"/>
</linearGradient>
<radialGradient id="paint1_radial_6_3123" cx="0" cy="0" r="1" gradientUnits="userSpaceOnUse" gradientTransform="translate(242.211 193.16) rotate(99.086) scale(2.58101)">
<stop stop-color="#5DE530"/>
<stop offset="1" stop-color="#4CB728" stop-opacity="0.7"/>
</radialGradient>
<radialGradient id="paint2_radial_6_3123" cx="0" cy="0" r="1" gradientUnits="userSpaceOnUse" gradientTransform="translate(236.211 190.16) rotate(99.086) scale(2.58101)">
<stop stop-color="#5DE530"/>
<stop offset="1" stop-color="#4CB728" stop-opacity="0.7"/>
</radialGradient>
<radialGradient id="paint3_radial_6_3123" cx="0" cy="0" r="1" gradientUnits="userSpaceOnUse" gradientTransform="translate(248.211 194.16) rotate(99.086) scale(2.58101 2.58102)">
<stop stop-color="#5DE530"/>
<stop offset="1" stop-color="#4CB728" stop-opacity="0.7"/>
</radialGradient>
<radialGradient id="paint4_radial_6_3123" cx="0" cy="0" r="1" gradientUnits="userSpaceOnUse" gradientTransform="translate(257.791 193.911) rotate(99.086) scale(2.58101)">
<stop stop-color="#5DE530"/>
<stop offset="1" stop-color="#4CB728" stop-opacity="0.7"/>
</radialGradient>
<radialGradient id="paint5_radial_6_3123" cx="0" cy="0" r="1" gradientUnits="userSpaceOnUse" gradientTransform="translate(206.961 171.836) rotate(99.086) scale(2.58101 2.58102)">
<stop stop-color="#5DE530"/>
<stop offset="1" stop-color="#4CB728" stop-opacity="0.7"/>
</radialGradient>
<radialGradient id="paint6_radial_6_3123" cx="0" cy="0" r="1" gradientUnits="userSpaceOnUse" gradientTransform="translate(226.543 174.968) rotate(99.086) scale(2.58101)">
<stop stop-color="#5DE530"/>
<stop offset="1" stop-color="#4CB728" stop-opacity="0.7"/>
</radialGradient>
<radialGradient id="paint7_radial_6_3123" cx="0" cy="0" r="1" gradientUnits="userSpaceOnUse" gradientTransform="translate(208.002 165.332) rotate(99.086) scale(2.58102)">
<stop stop-color="#5DE530"/>
<stop offset="1" stop-color="#4CB728" stop-opacity="0.7"/>
</radialGradient>
<radialGradient id="paint8_radial_6_3123" cx="0" cy="0" r="1" gradientUnits="userSpaceOnUse" gradientTransform="translate(214.836 166.425) rotate(99.086) scale(2.58102 2.58101)">
<stop stop-color="#5DE530"/>
<stop offset="1" stop-color="#4CB728" stop-opacity="0.7"/>
</radialGradient>
<radialGradient id="paint9_radial_6_3123" cx="0" cy="0" r="1" gradientUnits="userSpaceOnUse" gradientTransform="translate(221.044 167.418) rotate(99.086) scale(2.58102 2.58101)">
<stop stop-color="#5DE530"/>
<stop offset="1" stop-color="#4CB728" stop-opacity="0.7"/>
</radialGradient>
<radialGradient id="paint10_radial_6_3123" cx="0" cy="0" r="1" gradientUnits="userSpaceOnUse" gradientTransform="translate(227.583 168.463) rotate(99.086) scale(2.58102 2.58101)">
<stop stop-color="#5DE530"/>
<stop offset="1" stop-color="#4CB728" stop-opacity="0.7"/>
</radialGradient>
<radialGradient id="paint11_radial_6_3123" cx="0" cy="0" r="1" gradientUnits="userSpaceOnUse" gradientTransform="translate(209.092 158.515) rotate(99.086) scale(2.58101 2.58102)">
<stop stop-color="#5DE530"/>
<stop offset="1" stop-color="#4CB728" stop-opacity="0.7"/>
</radialGradient>
<radialGradient id="paint12_radial_6_3123" cx="0" cy="0" r="1" gradientUnits="userSpaceOnUse" gradientTransform="translate(215.926 159.608) rotate(99.086) scale(2.58101)">
<stop stop-color="#5DE530"/>
<stop offset="1" stop-color="#4CB728" stop-opacity="0.7"/>
</radialGradient>
<radialGradient id="paint13_radial_6_3123" cx="0" cy="0" r="1" gradientUnits="userSpaceOnUse" gradientTransform="translate(222.135 160.601) rotate(99.086) scale(2.58101)">
<stop stop-color="#5DE530"/>
<stop offset="1" stop-color="#4CB728" stop-opacity="0.7"/>
</radialGradient>
<radialGradient id="paint14_radial_6_3123" cx="0" cy="0" r="1" gradientUnits="userSpaceOnUse" gradientTransform="translate(228.673 161.647) rotate(99.086) scale(2.58101)">
<stop stop-color="#5DE530"/>
<stop offset="1" stop-color="#4CB728" stop-opacity="0.7"/>
</radialGradient>
<radialGradient id="paint15_radial_6_3123" cx="0" cy="0" r="1" gradientUnits="userSpaceOnUse" gradientTransform="translate(210.119 152.089) rotate(99.086) scale(2.58102)">
<stop stop-color="#5DE530"/>
<stop offset="1" stop-color="#4CB728" stop-opacity="0.7"/>
</radialGradient>
<radialGradient id="paint16_radial_6_3123" cx="0" cy="0" r="1" gradientUnits="userSpaceOnUse" gradientTransform="translate(216.953 153.182) rotate(99.086) scale(2.58102 2.58101)">
<stop stop-color="#5DE530"/>
<stop offset="1" stop-color="#4CB728" stop-opacity="0.7"/>
</radialGradient>
<radialGradient id="paint17_radial_6_3123" cx="0" cy="0" r="1" gradientUnits="userSpaceOnUse" gradientTransform="translate(223.162 154.175) rotate(99.086) scale(2.58102 2.58101)">
<stop stop-color="#5DE530"/>
<stop offset="1" stop-color="#4CB728" stop-opacity="0.7"/>
</radialGradient>
<radialGradient id="paint18_radial_6_3123" cx="0" cy="0" r="1" gradientUnits="userSpaceOnUse" gradientTransform="translate(229.701 155.221) rotate(99.086) scale(2.58102 2.58101)">
<stop stop-color="#5DE530"/>
<stop offset="1" stop-color="#4CB728" stop-opacity="0.7"/>
</radialGradient>
<radialGradient id="paint19_radial_6_3123" cx="0" cy="0" r="1" gradientUnits="userSpaceOnUse" gradientTransform="translate(211.148 145.655) rotate(99.086) scale(2.58102)">
<stop stop-color="#5DE530"/>
<stop offset="1" stop-color="#4CB728" stop-opacity="0.7"/>
</radialGradient>
<radialGradient id="paint20_radial_6_3123" cx="0" cy="0" r="1" gradientUnits="userSpaceOnUse" gradientTransform="translate(217.982 146.748) rotate(99.086) scale(2.58102 2.58101)">
<stop stop-color="#5DE530"/>
<stop offset="1" stop-color="#4CB728" stop-opacity="0.7"/>
</radialGradient>
<radialGradient id="paint21_radial_6_3123" cx="0" cy="0" r="1" gradientUnits="userSpaceOnUse" gradientTransform="translate(224.191 147.741) rotate(99.086) scale(2.58102 2.58101)">
<stop stop-color="#5DE530"/>
<stop offset="1" stop-color="#4CB728" stop-opacity="0.7"/>
</radialGradient>
<radialGradient id="paint22_radial_6_3123" cx="0" cy="0" r="1" gradientUnits="userSpaceOnUse" gradientTransform="translate(230.73 148.786) rotate(99.086) scale(2.58102 2.58101)">
<stop stop-color="#5DE530"/>
<stop offset="1" stop-color="#4CB728" stop-opacity="0.7"/>
</radialGradient>
<radialGradient id="paint23_radial_6_3123" cx="0" cy="0" r="1" gradientUnits="userSpaceOnUse" gradientTransform="translate(212.087 139.785) rotate(99.086) scale(2.58101 2.58102)">
<stop stop-color="#5DE530"/>
<stop offset="1" stop-color="#4CB728" stop-opacity="0.7"/>
</radialGradient>
<radialGradient id="paint24_radial_6_3123" cx="0" cy="0" r="1" gradientUnits="userSpaceOnUse" gradientTransform="translate(218.921 140.878) rotate(99.086) scale(2.58101)">
<stop stop-color="#5DE530"/>
<stop offset="1" stop-color="#4CB728" stop-opacity="0.7"/>
</radialGradient>
<radialGradient id="paint25_radial_6_3123" cx="0" cy="0" r="1" gradientUnits="userSpaceOnUse" gradientTransform="translate(225.13 141.871) rotate(99.086) scale(2.58101)">
<stop stop-color="#5DE530"/>
<stop offset="1" stop-color="#4CB728" stop-opacity="0.7"/>
</radialGradient>
<radialGradient id="paint26_radial_6_3123" cx="0" cy="0" r="1" gradientUnits="userSpaceOnUse" gradientTransform="translate(231.669 142.916) rotate(99.086) scale(2.58101)">
<stop stop-color="#5DE530"/>
<stop offset="1" stop-color="#4CB728" stop-opacity="0.7"/>
</radialGradient>
<radialGradient id="paint27_radial_6_3123" cx="0" cy="0" r="1" gradientUnits="userSpaceOnUse" gradientTransform="translate(213.169 133.02) rotate(99.086) scale(2.58101 2.58102)">
<stop stop-color="#5DE530"/>
<stop offset="1" stop-color="#4CB728" stop-opacity="0.7"/>
</radialGradient>
<radialGradient id="paint28_radial_6_3123" cx="0" cy="0" r="1" gradientUnits="userSpaceOnUse" gradientTransform="translate(220.003 134.113) rotate(99.086) scale(2.58101)">
<stop stop-color="#5DE530"/>
<stop offset="1" stop-color="#4CB728" stop-opacity="0.7"/>
</radialGradient>
<radialGradient id="paint29_radial_6_3123" cx="0" cy="0" r="1" gradientUnits="userSpaceOnUse" gradientTransform="translate(226.212 135.106) rotate(99.086) scale(2.58101)">
<stop stop-color="#5DE530"/>
<stop offset="1" stop-color="#4CB728" stop-opacity="0.7"/>
</radialGradient>
<radialGradient id="paint30_radial_6_3123" cx="0" cy="0" r="1" gradientUnits="userSpaceOnUse" gradientTransform="translate(232.75 136.152) rotate(99.086) scale(2.58101)">
<stop stop-color="#5DE530"/>
<stop offset="1" stop-color="#4CB728" stop-opacity="0.7"/>
</radialGradient>
<radialGradient id="paint31_radial_6_3123" cx="0" cy="0" r="1" gradientUnits="userSpaceOnUse" gradientTransform="translate(214.162 126.812) rotate(99.086) scale(2.58102)">
<stop stop-color="#5DE530"/>
<stop offset="1" stop-color="#4CB728" stop-opacity="0.7"/>
</radialGradient>
<radialGradient id="paint32_radial_6_3123" cx="0" cy="0" r="1" gradientUnits="userSpaceOnUse" gradientTransform="translate(220.996 127.905) rotate(99.086) scale(2.58102 2.58101)">
<stop stop-color="#5DE530"/>
<stop offset="1" stop-color="#4CB728" stop-opacity="0.7"/>
</radialGradient>
<radialGradient id="paint33_radial_6_3123" cx="0" cy="0" r="1" gradientUnits="userSpaceOnUse" gradientTransform="translate(227.205 128.897) rotate(99.086) scale(2.58102 2.58101)">
<stop stop-color="#5DE530"/>
<stop offset="1" stop-color="#4CB728" stop-opacity="0.7"/>
</radialGradient>
<radialGradient id="paint34_radial_6_3123" cx="0" cy="0" r="1" gradientUnits="userSpaceOnUse" gradientTransform="translate(233.743 129.943) rotate(99.086) scale(2.58102 2.58101)">
<stop stop-color="#5DE530"/>
<stop offset="1" stop-color="#4CB728" stop-opacity="0.7"/>
</radialGradient>
<radialGradient id="paint35_radial_6_3123" cx="0" cy="0" r="1" gradientUnits="userSpaceOnUse" gradientTransform="translate(215.155 120.603) rotate(99.086) scale(2.58101 2.58102)">
<stop stop-color="#5DE530"/>
<stop offset="1" stop-color="#4CB728" stop-opacity="0.7"/>
</radialGradient>
<radialGradient id="paint36_radial_6_3123" cx="0" cy="0" r="1" gradientUnits="userSpaceOnUse" gradientTransform="translate(221.989 121.696) rotate(99.086) scale(2.58101)">
<stop stop-color="#5DE530"/>
<stop offset="1" stop-color="#4CB728" stop-opacity="0.7"/>
</radialGradient>
<radialGradient id="paint37_radial_6_3123" cx="0" cy="0" r="1" gradientUnits="userSpaceOnUse" gradientTransform="translate(228.198 122.689) rotate(99.086) scale(2.58101)">
<stop stop-color="#5DE530"/>
<stop offset="1" stop-color="#4CB728" stop-opacity="0.7"/>
</radialGradient>
<radialGradient id="paint38_radial_6_3123" cx="0" cy="0" r="1" gradientUnits="userSpaceOnUse" gradientTransform="translate(234.736 123.734) rotate(99.086) scale(2.58101)">
<stop stop-color="#5DE530"/>
<stop offset="1" stop-color="#4CB728" stop-opacity="0.7"/>
</radialGradient>
<radialGradient id="paint39_radial_6_3123" cx="0" cy="0" r="1" gradientUnits="userSpaceOnUse" gradientTransform="translate(223.053 115.044) rotate(99.086) scale(2.58101)">
<stop stop-color="#5DE530"/>
<stop offset="1" stop-color="#4CB728" stop-opacity="0.7"/>
</radialGradient>
<radialGradient id="paint40_radial_6_3123" cx="0" cy="0" r="1" gradientUnits="userSpaceOnUse" gradientTransform="translate(229.261 116.037) rotate(99.086) scale(2.58101)">
<stop stop-color="#5DE530"/>
<stop offset="1" stop-color="#4CB728" stop-opacity="0.7"/>
</radialGradient>
<radialGradient id="paint41_radial_6_3123" cx="0" cy="0" r="1" gradientUnits="userSpaceOnUse" gradientTransform="translate(273.135 182.614) rotate(99.086) scale(2.58101 2.58102)">
<stop stop-color="#5DE530"/>
<stop offset="1" stop-color="#4CB728" stop-opacity="0.7"/>
</radialGradient>
<radialGradient id="paint42_radial_6_3123" cx="0" cy="0" r="1" gradientUnits="userSpaceOnUse" gradientTransform="translate(292.716 185.746) rotate(99.086) scale(2.58101)">
<stop stop-color="#5DE530"/>
<stop offset="1" stop-color="#4CB728" stop-opacity="0.7"/>
</radialGradient>
<radialGradient id="paint43_radial_6_3123" cx="0" cy="0" r="1" gradientUnits="userSpaceOnUse" gradientTransform="translate(274.175 176.11) rotate(99.086) scale(2.58102)">
<stop stop-color="#5DE530"/>
<stop offset="1" stop-color="#4CB728" stop-opacity="0.7"/>
</radialGradient>
<radialGradient id="paint44_radial_6_3123" cx="0" cy="0" r="1" gradientUnits="userSpaceOnUse" gradientTransform="translate(281.009 177.203) rotate(99.086) scale(2.58102 2.58101)">
<stop stop-color="#5DE530"/>
<stop offset="1" stop-color="#4CB728" stop-opacity="0.7"/>
</radialGradient>
<radialGradient id="paint45_radial_6_3123" cx="0" cy="0" r="1" gradientUnits="userSpaceOnUse" gradientTransform="translate(287.217 178.196) rotate(99.086) scale(2.58102 2.58101)">
<stop stop-color="#5DE530"/>
<stop offset="1" stop-color="#4CB728" stop-opacity="0.7"/>
</radialGradient>
<radialGradient id="paint46_radial_6_3123" cx="0" cy="0" r="1" gradientUnits="userSpaceOnUse" gradientTransform="translate(293.756 179.242) rotate(99.086) scale(2.58102 2.58101)">
<stop stop-color="#5DE530"/>
<stop offset="1" stop-color="#4CB728" stop-opacity="0.7"/>
</radialGradient>
<radialGradient id="paint47_radial_6_3123" cx="0" cy="0" r="1" gradientUnits="userSpaceOnUse" gradientTransform="translate(275.265 169.293) rotate(99.086) scale(2.58101 2.58102)">
<stop stop-color="#5DE530"/>
<stop offset="1" stop-color="#4CB728" stop-opacity="0.7"/>
</radialGradient>
<radialGradient id="paint48_radial_6_3123" cx="0" cy="0" r="1" gradientUnits="userSpaceOnUse" gradientTransform="translate(282.099 170.386) rotate(99.086) scale(2.58101)">
<stop stop-color="#5DE530"/>
<stop offset="1" stop-color="#4CB728" stop-opacity="0.7"/>
</radialGradient>
<radialGradient id="paint49_radial_6_3123" cx="0" cy="0" r="1" gradientUnits="userSpaceOnUse" gradientTransform="translate(288.308 171.379) rotate(99.086) scale(2.58101)">
<stop stop-color="#5DE530"/>
<stop offset="1" stop-color="#4CB728" stop-opacity="0.7"/>
</radialGradient>
<radialGradient id="paint50_radial_6_3123" cx="0" cy="0" r="1" gradientUnits="userSpaceOnUse" gradientTransform="translate(294.846 172.425) rotate(99.086) scale(2.58101)">
<stop stop-color="#5DE530"/>
<stop offset="1" stop-color="#4CB728" stop-opacity="0.7"/>
</radialGradient>
<radialGradient id="paint51_radial_6_3123" cx="0" cy="0" r="1" gradientUnits="userSpaceOnUse" gradientTransform="translate(276.292 162.868) rotate(99.086) scale(2.58102)">
<stop stop-color="#5DE530"/>
<stop offset="1" stop-color="#4CB728" stop-opacity="0.7"/>
</radialGradient>
<radialGradient id="paint52_radial_6_3123" cx="0" cy="0" r="1" gradientUnits="userSpaceOnUse" gradientTransform="translate(283.126 163.96) rotate(99.086) scale(2.58102 2.58101)">
<stop stop-color="#5DE530"/>
<stop offset="1" stop-color="#4CB728" stop-opacity="0.7"/>
</radialGradient>
<radialGradient id="paint53_radial_6_3123" cx="0" cy="0" r="1" gradientUnits="userSpaceOnUse" gradientTransform="translate(289.335 164.953) rotate(99.086) scale(2.58102 2.58101)">
<stop stop-color="#5DE530"/>
<stop offset="1" stop-color="#4CB728" stop-opacity="0.7"/>
</radialGradient>
<radialGradient id="paint54_radial_6_3123" cx="0" cy="0" r="1" gradientUnits="userSpaceOnUse" gradientTransform="translate(295.874 165.999) rotate(99.086) scale(2.58102 2.58101)">
<stop stop-color="#5DE530"/>
<stop offset="1" stop-color="#4CB728" stop-opacity="0.7"/>
</radialGradient>
<radialGradient id="paint55_radial_6_3123" cx="0" cy="0" r="1" gradientUnits="userSpaceOnUse" gradientTransform="translate(277.321 156.433) rotate(99.086) scale(2.58102)">
<stop stop-color="#5DE530"/>
<stop offset="1" stop-color="#4CB728" stop-opacity="0.7"/>
</radialGradient>
<radialGradient id="paint56_radial_6_3123" cx="0" cy="0" r="1" gradientUnits="userSpaceOnUse" gradientTransform="translate(284.155 157.526) rotate(99.086) scale(2.58102 2.58101)">
<stop stop-color="#5DE530"/>
<stop offset="1" stop-color="#4CB728" stop-opacity="0.7"/>
</radialGradient>
<radialGradient id="paint57_radial_6_3123" cx="0" cy="0" r="1" gradientUnits="userSpaceOnUse" gradientTransform="translate(290.364 158.519) rotate(99.086) scale(2.58102 2.58101)">
<stop stop-color="#5DE530"/>
<stop offset="1" stop-color="#4CB728" stop-opacity="0.7"/>
</radialGradient>
<radialGradient id="paint58_radial_6_3123" cx="0" cy="0" r="1" gradientUnits="userSpaceOnUse" gradientTransform="translate(296.903 159.564) rotate(99.086) scale(2.58102 2.58101)">
<stop stop-color="#5DE530"/>
<stop offset="1" stop-color="#4CB728" stop-opacity="0.7"/>
</radialGradient>
<radialGradient id="paint59_radial_6_3123" cx="0" cy="0" r="1" gradientUnits="userSpaceOnUse" gradientTransform="translate(278.26 150.563) rotate(99.086) scale(2.58101 2.58102)">
<stop stop-color="#5DE530"/>
<stop offset="1" stop-color="#4CB728" stop-opacity="0.7"/>
</radialGradient>
<radialGradient id="paint60_radial_6_3123" cx="0" cy="0" r="1" gradientUnits="userSpaceOnUse" gradientTransform="translate(285.094 151.656) rotate(99.086) scale(2.58101)">
<stop stop-color="#5DE530"/>
<stop offset="1" stop-color="#4CB728" stop-opacity="0.7"/>
</radialGradient>
<radialGradient id="paint61_radial_6_3123" cx="0" cy="0" r="1" gradientUnits="userSpaceOnUse" gradientTransform="translate(291.303 152.649) rotate(99.086) scale(2.58101)">
<stop stop-color="#5DE530"/>
<stop offset="1" stop-color="#4CB728" stop-opacity="0.7"/>
</radialGradient>
<radialGradient id="paint62_radial_6_3123" cx="0" cy="0" r="1" gradientUnits="userSpaceOnUse" gradientTransform="translate(297.842 153.695) rotate(99.086) scale(2.58101)">
<stop stop-color="#5DE530"/>
<stop offset="1" stop-color="#4CB728" stop-opacity="0.7"/>
</radialGradient>
<radialGradient id="paint63_radial_6_3123" cx="0" cy="0" r="1" gradientUnits="userSpaceOnUse" gradientTransform="translate(279.342 143.798) rotate(99.086) scale(2.58101 2.58102)">
<stop stop-color="#5DE530"/>
<stop offset="1" stop-color="#4CB728" stop-opacity="0.7"/>
</radialGradient>
<radialGradient id="paint64_radial_6_3123" cx="0" cy="0" r="1" gradientUnits="userSpaceOnUse" gradientTransform="translate(286.176 144.891) rotate(99.086) scale(2.58101)">
<stop stop-color="#5DE530"/>
<stop offset="1" stop-color="#4CB728" stop-opacity="0.7"/>
</radialGradient>
<radialGradient id="paint65_radial_6_3123" cx="0" cy="0" r="1" gradientUnits="userSpaceOnUse" gradientTransform="translate(292.385 145.884) rotate(99.086) scale(2.58101)">
<stop stop-color="#5DE530"/>
<stop offset="1" stop-color="#4CB728" stop-opacity="0.7"/>
</radialGradient>
<radialGradient id="paint66_radial_6_3123" cx="0" cy="0" r="1" gradientUnits="userSpaceOnUse" gradientTransform="translate(298.924 146.93) rotate(99.086) scale(2.58101)">
<stop stop-color="#5DE530"/>
<stop offset="1" stop-color="#4CB728" stop-opacity="0.7"/>
</radialGradient>
<radialGradient id="paint67_radial_6_3123" cx="0" cy="0" r="1" gradientUnits="userSpaceOnUse" gradientTransform="translate(280.335 137.59) rotate(99.086) scale(2.58102)">
<stop stop-color="#5DE530"/>
<stop offset="1" stop-color="#4CB728" stop-opacity="0.7"/>
</radialGradient>
<radialGradient id="paint68_radial_6_3123" cx="0" cy="0" r="1" gradientUnits="userSpaceOnUse" gradientTransform="translate(287.169 138.683) rotate(99.086) scale(2.58102 2.58101)">
<stop stop-color="#5DE530"/>
<stop offset="1" stop-color="#4CB728" stop-opacity="0.7"/>
</radialGradient>
<radialGradient id="paint69_radial_6_3123" cx="0" cy="0" r="1" gradientUnits="userSpaceOnUse" gradientTransform="translate(293.378 139.676) rotate(99.086) scale(2.58102 2.58101)">
<stop stop-color="#5DE530"/>
<stop offset="1" stop-color="#4CB728" stop-opacity="0.7"/>
</radialGradient>
<radialGradient id="paint70_radial_6_3123" cx="0" cy="0" r="1" gradientUnits="userSpaceOnUse" gradientTransform="translate(299.917 140.721) rotate(99.086) scale(2.58102 2.58101)">
<stop stop-color="#5DE530"/>
<stop offset="1" stop-color="#4CB728" stop-opacity="0.7"/>
</radialGradient>
<radialGradient id="paint71_radial_6_3123" cx="0" cy="0" r="1" gradientUnits="userSpaceOnUse" gradientTransform="translate(281.328 131.381) rotate(99.086) scale(2.58101 2.58102)">
<stop stop-color="#5DE530"/>
<stop offset="1" stop-color="#4CB728" stop-opacity="0.7"/>
</radialGradient>
<radialGradient id="paint72_radial_6_3123" cx="0" cy="0" r="1" gradientUnits="userSpaceOnUse" gradientTransform="translate(288.162 132.474) rotate(99.086) scale(2.58101)">
<stop stop-color="#5DE530"/>
<stop offset="1" stop-color="#4CB728" stop-opacity="0.7"/>
</radialGradient>
<radialGradient id="paint73_radial_6_3123" cx="0" cy="0" r="1" gradientUnits="userSpaceOnUse" gradientTransform="translate(294.371 133.467) rotate(99.086) scale(2.58101)">
<stop stop-color="#5DE530"/>
<stop offset="1" stop-color="#4CB728" stop-opacity="0.7"/>
</radialGradient>
<radialGradient id="paint74_radial_6_3123" cx="0" cy="0" r="1" gradientUnits="userSpaceOnUse" gradientTransform="translate(300.909 134.513) rotate(99.086) scale(2.58101)">
<stop stop-color="#5DE530"/>
<stop offset="1" stop-color="#4CB728" stop-opacity="0.7"/>
</radialGradient>
<radialGradient id="paint75_radial_6_3123" cx="0" cy="0" r="1" gradientUnits="userSpaceOnUse" gradientTransform="translate(289.226 125.822) rotate(99.086) scale(2.58101)">
<stop stop-color="#5DE530"/>
<stop offset="1" stop-color="#4CB728" stop-opacity="0.7"/>
</radialGradient>
<radialGradient id="paint76_radial_6_3123" cx="0" cy="0" r="1" gradientUnits="userSpaceOnUse" gradientTransform="translate(295.434 126.815) rotate(99.086) scale(2.58101)">
<stop stop-color="#5DE530"/>
<stop offset="1" stop-color="#4CB728" stop-opacity="0.7"/>
</radialGradient>
<clipPath id="clip0_6_3123">
<rect width="475.774" height="475.774" fill="white" transform="matrix(-1 0 0 1 476 0)"/>
</clipPath>
</defs>
</svg>
