<svg width="48" height="48" viewBox="0 0 48 48" fill="none" xmlns="http://www.w3.org/2000/svg">
<path d="M43.9999 42V38C43.9999 34.2723 41.4503 31.1401 37.9999 30.252M30.9999 6.58152C33.9317 7.76829 35.9999 10.6426 35.9999 14C35.9999 17.3574 33.9317 20.2317 30.9999 21.4185M33.9999 42C33.9999 38.2725 33.9999 36.4087 33.3909 34.9385C32.579 32.9783 31.0216 31.4209 29.0613 30.609C27.5912 30 25.7274 30 21.9999 30H15.9999C12.2723 30 10.4086 30 8.93841 30.609C6.97819 31.4209 5.42079 32.9783 4.60884 34.9385C3.99988 36.4087 3.99988 38.2725 3.99988 42M26.9999 14C26.9999 18.4183 23.4182 22 18.9999 22C14.5816 22 10.9999 18.4183 10.9999 14C10.9999 9.58172 14.5816 6 18.9999 6C23.4182 6 26.9999 9.58172 26.9999 14Z" stroke="#B72DA8" stroke-width="4" stroke-linecap="round" stroke-linejoin="round"/>
</svg>
