<svg width="48" height="48" viewBox="0 0 48 48" fill="none" xmlns="http://www.w3.org/2000/svg">
<path d="M43.9999 20H3.99988M3.99988 16.4L3.99988 31.6C3.99988 33.8402 3.99988 34.9603 4.43585 35.816C4.81935 36.5686 5.43127 37.1805 6.18392 37.564C7.03956 38 8.15967 38 10.3999 38L37.5999 38C39.8401 38 40.9602 38 41.8158 37.564C42.5685 37.1805 43.1804 36.5686 43.5639 35.816C43.9999 34.9603 43.9999 33.8402 43.9999 31.6V16.4C43.9999 14.1598 43.9999 13.0397 43.5639 12.184C43.1804 11.4314 42.5685 10.8195 41.8158 10.436C40.9602 10 39.8401 10 37.5999 10L10.3999 10C8.15967 10 7.03956 10 6.18392 10.436C5.43127 10.8195 4.81935 11.4314 4.43585 12.184C3.99988 13.0397 3.99988 14.1598 3.99988 16.4Z" stroke="#B72DA8" stroke-width="4" stroke-linecap="round" stroke-linejoin="round"/>
</svg>
