<svg width="48" height="48" viewBox="0 0 48 48" fill="none" xmlns="http://www.w3.org/2000/svg">
<path d="M11.0402 5.28L7.92018 9.44C7.30221 10.264 6.99323 10.6759 7.0004 11.0208C7.00664 11.3209 7.14735 11.6023 7.38368 11.7874C7.65526 12 8.17024 12 9.20018 12H38.8002C39.8301 12 40.3451 12 40.6167 11.7874C40.853 11.6023 40.9937 11.3209 41 11.0208C41.0071 10.6759 40.6982 10.264 40.0802 9.44L36.9602 5.28M11.0402 5.28C11.3922 4.81067 11.5682 4.576 11.7912 4.40675C11.9888 4.25685 12.2125 4.14499 12.451 4.07689C12.7202 4 13.0135 4 13.6002 4H34.4002C34.9868 4 35.2802 4 35.5494 4.07689C35.7879 4.14499 36.0116 4.25685 36.2091 4.40675C36.4322 4.576 36.6082 4.81067 36.9602 5.28M11.0402 5.28L7.28018 10.2933C6.80526 10.9266 6.5678 11.2432 6.39918 11.5918C6.24955 11.9012 6.14042 12.2286 6.07449 12.5659C6.00018 12.946 6.00018 13.3418 6.00018 14.1333L6.00018 37.6C6.00018 39.8402 6.00018 40.9603 6.43616 41.816C6.81965 42.5686 7.43157 43.1805 8.18422 43.564C9.03987 44 10.16 44 12.4002 44L35.6002 44C37.8404 44 38.9605 44 39.8161 43.564C40.5688 43.1805 41.1807 42.5686 41.5642 41.816C42.0002 40.9603 42.0002 39.8402 42.0002 37.6V14.1333C42.0002 13.3418 42.0002 12.946 41.9259 12.5659C41.8599 12.2286 41.7508 11.9012 41.6012 11.5918C41.4326 11.2432 41.1951 10.9266 40.7202 10.2933L36.9602 5.28M32.0002 20C32.0002 22.1217 31.1573 24.1566 29.657 25.6569C28.1567 27.1571 26.1219 28 24.0002 28C21.8785 28 19.8436 27.1571 18.3433 25.6569C16.843 24.1566 16.0002 22.1217 16.0002 20" stroke="#B72DA8" stroke-width="4" stroke-linecap="round" stroke-linejoin="round"/>
</svg>
