<svg width="48" height="48" viewBox="0 0 48 48" fill="none" xmlns="http://www.w3.org/2000/svg">
<path d="M23.9999 4C29.0024 9.47671 31.8454 16.5841 31.9999 24C31.8454 31.4159 29.0024 38.5233 23.9999 44M23.9999 4C18.9973 9.47671 16.1544 16.5841 15.9999 24C16.1544 31.4159 18.9973 38.5233 23.9999 44M23.9999 4C12.9542 4 3.99988 12.9543 3.99988 24C3.99988 35.0457 12.9542 44 23.9999 44M23.9999 4C35.0456 4 43.9999 12.9543 43.9999 24C43.9999 35.0457 35.0456 44 23.9999 44M4.99992 18H42.9999M4.99988 30H42.9999" stroke="#B72DA8" stroke-width="4" stroke-linecap="round" stroke-linejoin="round"/>
</svg>
