<svg width="48" height="48" viewBox="0 0 48 48" fill="none" xmlns="http://www.w3.org/2000/svg">
<path d="M35.9999 31.6738C38.9117 33.1365 41.4082 35.4839 43.2304 38.4193C43.5913 39.0005 43.7717 39.2912 43.8341 39.6937C43.9608 40.5115 43.4015 41.5171 42.6398 41.8407C42.2649 42 41.8433 42 40.9999 42M31.9999 23.0645C34.9634 21.5918 36.9999 18.5337 36.9999 15C36.9999 11.4663 34.9634 8.40822 31.9999 6.93552M27.9999 15C27.9999 19.9706 23.9705 24 18.9999 24C14.0294 24 9.99992 19.9706 9.99992 15C9.99992 10.0294 14.0294 6 18.9999 6C23.9705 6 27.9999 10.0294 27.9999 15ZM5.11838 37.8767C8.30699 33.0891 13.3387 30 18.9999 30C24.6612 30 29.6928 33.0891 32.8815 37.8767C33.58 38.9255 33.9293 39.4499 33.8891 40.1198C33.8577 40.6414 33.5158 41.28 33.099 41.5952C32.5638 42 31.8276 42 30.3552 42H7.64463C6.17226 42 5.43607 42 4.9008 41.5952C4.48401 41.28 4.14209 40.6414 4.11079 40.1198C4.07057 39.4499 4.41984 38.9255 5.11838 37.8767Z" stroke="#B72DA8" stroke-width="4" stroke-linecap="round" stroke-linejoin="round"/>
</svg>
