<svg width="48" height="48" viewBox="0 0 48 48" fill="none" xmlns="http://www.w3.org/2000/svg">
<path d="M30.0002 42V31.2C30.0002 30.0799 30.0002 29.5198 29.7822 29.092C29.5904 28.7157 29.2845 28.4097 28.9082 28.218C28.4803 28 27.9203 28 26.8002 28H21.2002C20.0801 28 19.52 28 19.0922 28.218C18.7159 28.4097 18.4099 28.7157 18.2182 29.092C18.0002 29.5198 18.0002 30.0799 18.0002 31.2V42M6.00018 14C6.00018 17.3137 8.68647 20 12.0002 20C15.3139 20 18.0002 17.3137 18.0002 14C18.0002 17.3137 20.6865 20 24.0002 20C27.3139 20 30.0002 17.3137 30.0002 14C30.0002 17.3137 32.6865 20 36.0002 20C39.3139 20 42.0002 17.3137 42.0002 14M12.4002 42H35.6002C37.8404 42 38.9605 42 39.8161 41.564C40.5688 41.1805 41.1807 40.5686 41.5642 39.816C42.0002 38.9603 42.0002 37.8402 42.0002 35.6V12.4C42.0002 10.1598 42.0002 9.03968 41.5642 8.18404C41.1807 7.43139 40.5688 6.81947 39.8161 6.43597C38.9605 6 37.8404 6 35.6002 6H12.4002C10.16 6 9.03987 6 8.18422 6.43597C7.43157 6.81947 6.81965 7.43139 6.43616 8.18404C6.00018 9.03968 6.00018 10.1598 6.00018 12.4V35.6C6.00018 37.8402 6.00018 38.9603 6.43616 39.816C6.81965 40.5686 7.43157 41.1805 8.18422 41.564C9.03987 42 10.16 42 12.4002 42Z" stroke="#B72DA8" stroke-width="4" stroke-linecap="round" stroke-linejoin="round"/>
</svg>
