<svg width="48" height="48" viewBox="0 0 48 48" fill="none" xmlns="http://www.w3.org/2000/svg">
<path d="M18.0002 14H9.20018C8.08008 14 7.52003 14 7.0922 14.218C6.71588 14.4097 6.40992 14.7157 6.21817 15.092C6.00018 15.5198 6.00018 16.0799 6.00018 17.2V38.8C6.00018 39.9201 6.00018 40.4802 6.21817 40.908C6.40992 41.2843 6.71588 41.5903 7.0922 41.782C7.52003 42 8.08008 42 9.20018 42H18.0002M18.0002 42H30.0002M18.0002 42L18.0002 9.2C18.0002 8.0799 18.0002 7.51984 18.2182 7.09202C18.4099 6.7157 18.7159 6.40973 19.0922 6.21799C19.52 6 20.0801 6 21.2002 6L26.8002 6C27.9203 6 28.4803 6 28.9082 6.21799C29.2845 6.40973 29.5905 6.71569 29.7822 7.09202C30.0002 7.51984 30.0002 8.0799 30.0002 9.2V42M30.0002 22H38.8002C39.9203 22 40.4803 22 40.9082 22.218C41.2845 22.4097 41.5904 22.7157 41.7822 23.092C42.0002 23.5198 42.0002 24.0799 42.0002 25.2V38.8C42.0002 39.9201 42.0002 40.4802 41.7822 40.908C41.5904 41.2843 41.2845 41.5903 40.9082 41.782C40.4803 42 39.9203 42 38.8002 42H30.0002" stroke="#B72DA8" stroke-width="4" stroke-linecap="round" stroke-linejoin="round"/>
</svg>
